G04 #@! TF.GenerationSoftware,KiCad,Pcbnew,(5.1.5)-3*
G04 #@! TF.CreationDate,2020-02-02T01:24:49-05:00*
G04 #@! TF.ProjectId,Make717-PCBWay,4d616b65-3731-4372-9d50-43425761792e,rev?*
G04 #@! TF.SameCoordinates,Original*
G04 #@! TF.FileFunction,Legend,Bot*
G04 #@! TF.FilePolarity,Positive*
%FSLAX46Y46*%
G04 Gerber Fmt 4.6, Leading zero omitted, Abs format (unit mm)*
G04 Created by KiCad (PCBNEW (5.1.5)-3) date 2020-02-02 01:24:49*
%MOMM*%
%LPD*%
G04 APERTURE LIST*
%ADD10C,0.150000*%
%ADD11C,0.120000*%
%ADD12C,0.100000*%
G04 APERTURE END LIST*
D10*
X148450000Y-79457142D02*
X148497619Y-79504761D01*
X148640476Y-79552380D01*
X148735714Y-79552380D01*
X148878571Y-79504761D01*
X148973809Y-79409523D01*
X149021428Y-79314285D01*
X149069047Y-79123809D01*
X149069047Y-78980952D01*
X149021428Y-78790476D01*
X148973809Y-78695238D01*
X148878571Y-78600000D01*
X148735714Y-78552380D01*
X148640476Y-78552380D01*
X148497619Y-78600000D01*
X148450000Y-78647619D01*
X147450000Y-79552380D02*
X147783333Y-79076190D01*
X148021428Y-79552380D02*
X148021428Y-78552380D01*
X147640476Y-78552380D01*
X147545238Y-78600000D01*
X147497619Y-78647619D01*
X147450000Y-78742857D01*
X147450000Y-78885714D01*
X147497619Y-78980952D01*
X147545238Y-79028571D01*
X147640476Y-79076190D01*
X148021428Y-79076190D01*
X147069047Y-78647619D02*
X147021428Y-78600000D01*
X146926190Y-78552380D01*
X146688095Y-78552380D01*
X146592857Y-78600000D01*
X146545238Y-78647619D01*
X146497619Y-78742857D01*
X146497619Y-78838095D01*
X146545238Y-78980952D01*
X147116666Y-79552380D01*
X146497619Y-79552380D01*
X145878571Y-78552380D02*
X145783333Y-78552380D01*
X145688095Y-78600000D01*
X145640476Y-78647619D01*
X145592857Y-78742857D01*
X145545238Y-78933333D01*
X145545238Y-79171428D01*
X145592857Y-79361904D01*
X145640476Y-79457142D01*
X145688095Y-79504761D01*
X145783333Y-79552380D01*
X145878571Y-79552380D01*
X145973809Y-79504761D01*
X146021428Y-79457142D01*
X146069047Y-79361904D01*
X146116666Y-79171428D01*
X146116666Y-78933333D01*
X146069047Y-78742857D01*
X146021428Y-78647619D01*
X145973809Y-78600000D01*
X145878571Y-78552380D01*
X145211904Y-78552380D02*
X144592857Y-78552380D01*
X144926190Y-78933333D01*
X144783333Y-78933333D01*
X144688095Y-78980952D01*
X144640476Y-79028571D01*
X144592857Y-79123809D01*
X144592857Y-79361904D01*
X144640476Y-79457142D01*
X144688095Y-79504761D01*
X144783333Y-79552380D01*
X145069047Y-79552380D01*
X145164285Y-79504761D01*
X145211904Y-79457142D01*
X144211904Y-78647619D02*
X144164285Y-78600000D01*
X144069047Y-78552380D01*
X143830952Y-78552380D01*
X143735714Y-78600000D01*
X143688095Y-78647619D01*
X143640476Y-78742857D01*
X143640476Y-78838095D01*
X143688095Y-78980952D01*
X144259523Y-79552380D01*
X143640476Y-79552380D01*
X142450000Y-79171428D02*
X141688095Y-79171428D01*
X141211904Y-79552380D02*
X141211904Y-78552380D01*
X140973809Y-78552380D01*
X140830952Y-78600000D01*
X140735714Y-78695238D01*
X140688095Y-78790476D01*
X140640476Y-78980952D01*
X140640476Y-79123809D01*
X140688095Y-79314285D01*
X140735714Y-79409523D01*
X140830952Y-79504761D01*
X140973809Y-79552380D01*
X141211904Y-79552380D01*
X140069047Y-79552380D02*
X140164285Y-79504761D01*
X140211904Y-79457142D01*
X140259523Y-79361904D01*
X140259523Y-79076190D01*
X140211904Y-78980952D01*
X140164285Y-78933333D01*
X140069047Y-78885714D01*
X139926190Y-78885714D01*
X139830952Y-78933333D01*
X139783333Y-78980952D01*
X139735714Y-79076190D01*
X139735714Y-79361904D01*
X139783333Y-79457142D01*
X139830952Y-79504761D01*
X139926190Y-79552380D01*
X140069047Y-79552380D01*
X139402380Y-78885714D02*
X139211904Y-79552380D01*
X139021428Y-79076190D01*
X138830952Y-79552380D01*
X138640476Y-78885714D01*
X138259523Y-78885714D02*
X138259523Y-79552380D01*
X138259523Y-78980952D02*
X138211904Y-78933333D01*
X138116666Y-78885714D01*
X137973809Y-78885714D01*
X137878571Y-78933333D01*
X137830952Y-79028571D01*
X137830952Y-79552380D01*
X136592857Y-79171428D02*
X135830952Y-79171428D01*
X136211904Y-79552380D02*
X136211904Y-78790476D01*
X135354761Y-78552380D02*
X135354761Y-79361904D01*
X135307142Y-79457142D01*
X135259523Y-79504761D01*
X135164285Y-79552380D01*
X134973809Y-79552380D01*
X134878571Y-79504761D01*
X134830952Y-79457142D01*
X134783333Y-79361904D01*
X134783333Y-78552380D01*
X134307142Y-78885714D02*
X134307142Y-79885714D01*
X134307142Y-78933333D02*
X134211904Y-78885714D01*
X134021428Y-78885714D01*
X133926190Y-78933333D01*
X133878571Y-78980952D01*
X133830952Y-79076190D01*
X133830952Y-79361904D01*
X133878571Y-79457142D01*
X133926190Y-79504761D01*
X134021428Y-79552380D01*
X134211904Y-79552380D01*
X134307142Y-79504761D01*
X125254761Y-81004761D02*
X124873809Y-81004761D01*
X124683333Y-81100000D01*
X124492857Y-81290476D01*
X124397619Y-81671428D01*
X124397619Y-82338095D01*
X124492857Y-82719047D01*
X124683333Y-82909523D01*
X124873809Y-83004761D01*
X125254761Y-83004761D01*
X125445238Y-82909523D01*
X125635714Y-82719047D01*
X125730952Y-82338095D01*
X125730952Y-81671428D01*
X125635714Y-81290476D01*
X125445238Y-81100000D01*
X125254761Y-81004761D01*
X122873809Y-81957142D02*
X123540476Y-81957142D01*
X123540476Y-83004761D02*
X123540476Y-81004761D01*
X122588095Y-81004761D01*
X121159523Y-81957142D02*
X121826190Y-81957142D01*
X121826190Y-83004761D02*
X121826190Y-81004761D01*
X120873809Y-81004761D01*
X124838095Y-92704761D02*
X124457142Y-92704761D01*
X124266666Y-92800000D01*
X124076190Y-92990476D01*
X123980952Y-93371428D01*
X123980952Y-94038095D01*
X124076190Y-94419047D01*
X124266666Y-94609523D01*
X124457142Y-94704761D01*
X124838095Y-94704761D01*
X125028571Y-94609523D01*
X125219047Y-94419047D01*
X125314285Y-94038095D01*
X125314285Y-93371428D01*
X125219047Y-92990476D01*
X125028571Y-92800000D01*
X124838095Y-92704761D01*
X123123809Y-94704761D02*
X123123809Y-92704761D01*
X121980952Y-94704761D01*
X121980952Y-92704761D01*
X157911904Y-112052380D02*
X157911904Y-111052380D01*
X157483333Y-112052380D02*
X157483333Y-111528571D01*
X157530952Y-111433333D01*
X157626190Y-111385714D01*
X157769047Y-111385714D01*
X157864285Y-111433333D01*
X157911904Y-111480952D01*
X157150000Y-111385714D02*
X156769047Y-111385714D01*
X157007142Y-111052380D02*
X157007142Y-111909523D01*
X156959523Y-112004761D01*
X156864285Y-112052380D01*
X156769047Y-112052380D01*
X156578571Y-111385714D02*
X156197619Y-111385714D01*
X156435714Y-111052380D02*
X156435714Y-111909523D01*
X156388095Y-112004761D01*
X156292857Y-112052380D01*
X156197619Y-112052380D01*
X155864285Y-111385714D02*
X155864285Y-112385714D01*
X155864285Y-111433333D02*
X155769047Y-111385714D01*
X155578571Y-111385714D01*
X155483333Y-111433333D01*
X155435714Y-111480952D01*
X155388095Y-111576190D01*
X155388095Y-111861904D01*
X155435714Y-111957142D01*
X155483333Y-112004761D01*
X155578571Y-112052380D01*
X155769047Y-112052380D01*
X155864285Y-112004761D01*
X155007142Y-112004761D02*
X154911904Y-112052380D01*
X154721428Y-112052380D01*
X154626190Y-112004761D01*
X154578571Y-111909523D01*
X154578571Y-111861904D01*
X154626190Y-111766666D01*
X154721428Y-111719047D01*
X154864285Y-111719047D01*
X154959523Y-111671428D01*
X155007142Y-111576190D01*
X155007142Y-111528571D01*
X154959523Y-111433333D01*
X154864285Y-111385714D01*
X154721428Y-111385714D01*
X154626190Y-111433333D01*
X154150000Y-111957142D02*
X154102380Y-112004761D01*
X154150000Y-112052380D01*
X154197619Y-112004761D01*
X154150000Y-111957142D01*
X154150000Y-112052380D01*
X154150000Y-111433333D02*
X154102380Y-111480952D01*
X154150000Y-111528571D01*
X154197619Y-111480952D01*
X154150000Y-111433333D01*
X154150000Y-111528571D01*
X152959523Y-111004761D02*
X153816666Y-112290476D01*
X151911904Y-111004761D02*
X152769047Y-112290476D01*
X151578571Y-112052380D02*
X151578571Y-111385714D01*
X151578571Y-111480952D02*
X151530952Y-111433333D01*
X151435714Y-111385714D01*
X151292857Y-111385714D01*
X151197619Y-111433333D01*
X151150000Y-111528571D01*
X151150000Y-112052380D01*
X151150000Y-111528571D02*
X151102380Y-111433333D01*
X151007142Y-111385714D01*
X150864285Y-111385714D01*
X150769047Y-111433333D01*
X150721428Y-111528571D01*
X150721428Y-112052380D01*
X149816666Y-112052380D02*
X149816666Y-111528571D01*
X149864285Y-111433333D01*
X149959523Y-111385714D01*
X150150000Y-111385714D01*
X150245238Y-111433333D01*
X149816666Y-112004761D02*
X149911904Y-112052380D01*
X150150000Y-112052380D01*
X150245238Y-112004761D01*
X150292857Y-111909523D01*
X150292857Y-111814285D01*
X150245238Y-111719047D01*
X150150000Y-111671428D01*
X149911904Y-111671428D01*
X149816666Y-111623809D01*
X149340476Y-112052380D02*
X149340476Y-111052380D01*
X149245238Y-111671428D02*
X148959523Y-112052380D01*
X148959523Y-111385714D02*
X149340476Y-111766666D01*
X148150000Y-112004761D02*
X148245238Y-112052380D01*
X148435714Y-112052380D01*
X148530952Y-112004761D01*
X148578571Y-111909523D01*
X148578571Y-111528571D01*
X148530952Y-111433333D01*
X148435714Y-111385714D01*
X148245238Y-111385714D01*
X148150000Y-111433333D01*
X148102380Y-111528571D01*
X148102380Y-111623809D01*
X148578571Y-111719047D01*
X147769047Y-111052380D02*
X147102380Y-111052380D01*
X147530952Y-112052380D01*
X146197619Y-112052380D02*
X146769047Y-112052380D01*
X146483333Y-112052380D02*
X146483333Y-111052380D01*
X146578571Y-111195238D01*
X146673809Y-111290476D01*
X146769047Y-111338095D01*
X145864285Y-111052380D02*
X145197619Y-111052380D01*
X145626190Y-112052380D01*
X144816666Y-111957142D02*
X144769047Y-112004761D01*
X144816666Y-112052380D01*
X144864285Y-112004761D01*
X144816666Y-111957142D01*
X144816666Y-112052380D01*
X144197619Y-112052380D02*
X144292857Y-112004761D01*
X144340476Y-111957142D01*
X144388095Y-111861904D01*
X144388095Y-111576190D01*
X144340476Y-111480952D01*
X144292857Y-111433333D01*
X144197619Y-111385714D01*
X144054761Y-111385714D01*
X143959523Y-111433333D01*
X143911904Y-111480952D01*
X143864285Y-111576190D01*
X143864285Y-111861904D01*
X143911904Y-111957142D01*
X143959523Y-112004761D01*
X144054761Y-112052380D01*
X144197619Y-112052380D01*
X143435714Y-112052380D02*
X143435714Y-111385714D01*
X143435714Y-111576190D02*
X143388095Y-111480952D01*
X143340476Y-111433333D01*
X143245238Y-111385714D01*
X143150000Y-111385714D01*
X142388095Y-111385714D02*
X142388095Y-112195238D01*
X142435714Y-112290476D01*
X142483333Y-112338095D01*
X142578571Y-112385714D01*
X142721428Y-112385714D01*
X142816666Y-112338095D01*
X142388095Y-112004761D02*
X142483333Y-112052380D01*
X142673809Y-112052380D01*
X142769047Y-112004761D01*
X142816666Y-111957142D01*
X142864285Y-111861904D01*
X142864285Y-111576190D01*
X142816666Y-111480952D01*
X142769047Y-111433333D01*
X142673809Y-111385714D01*
X142483333Y-111385714D01*
X142388095Y-111433333D01*
D11*
X137347936Y-113140000D02*
X138552064Y-113140000D01*
X137347936Y-114960000D02*
X138552064Y-114960000D01*
X149900000Y-105800000D02*
X148500000Y-105800000D01*
X149900000Y-107600000D02*
X148500000Y-107600000D01*
X149500000Y-108200000D02*
X148900000Y-108000000D01*
X149500000Y-108200000D02*
X148900000Y-108400000D01*
X149000000Y-108200000D02*
X148900000Y-108400000D01*
X148900000Y-108000000D02*
X149000000Y-108200000D01*
X156150000Y-105800000D02*
X154750000Y-105800000D01*
X156150000Y-107600000D02*
X154750000Y-107600000D01*
X155750000Y-108200000D02*
X155150000Y-108000000D01*
X155750000Y-108200000D02*
X155150000Y-108400000D01*
X155250000Y-108200000D02*
X155150000Y-108400000D01*
X155150000Y-108000000D02*
X155250000Y-108200000D01*
X139750000Y-105800000D02*
X138350000Y-105800000D01*
X139750000Y-107600000D02*
X138350000Y-107600000D01*
X139350000Y-108200000D02*
X138750000Y-108000000D01*
X139350000Y-108200000D02*
X138750000Y-108400000D01*
X138850000Y-108200000D02*
X138750000Y-108400000D01*
X138750000Y-108000000D02*
X138850000Y-108200000D01*
X158552064Y-100710000D02*
X157347936Y-100710000D01*
X158552064Y-98890000D02*
X157347936Y-98890000D01*
X122410436Y-98890000D02*
X123614564Y-98890000D01*
X122410436Y-100710000D02*
X123614564Y-100710000D01*
D10*
X119309210Y-90550000D02*
G75*
G03X119309210Y-90550000I-359210J0D01*
G01*
X138116666Y-116322380D02*
X138450000Y-115846190D01*
X138688095Y-116322380D02*
X138688095Y-115322380D01*
X138307142Y-115322380D01*
X138211904Y-115370000D01*
X138164285Y-115417619D01*
X138116666Y-115512857D01*
X138116666Y-115655714D01*
X138164285Y-115750952D01*
X138211904Y-115798571D01*
X138307142Y-115846190D01*
X138688095Y-115846190D01*
X137783333Y-115322380D02*
X137164285Y-115322380D01*
X137497619Y-115703333D01*
X137354761Y-115703333D01*
X137259523Y-115750952D01*
X137211904Y-115798571D01*
X137164285Y-115893809D01*
X137164285Y-116131904D01*
X137211904Y-116227142D01*
X137259523Y-116274761D01*
X137354761Y-116322380D01*
X137640476Y-116322380D01*
X137735714Y-116274761D01*
X137783333Y-116227142D01*
D12*
X149200000Y-104319238D02*
X149200000Y-104319238D01*
X149200000Y-104319238D01*
X149200000Y-104319238D01*
X149200000Y-104319238D01*
X149200000Y-104319238D01*
X149200000Y-104319238D01*
X149200000Y-104319238D01*
X149200000Y-104319238D01*
X149200000Y-104319238D01*
X149200000Y-104319238D01*
X149200000Y-104319238D01*
X149200000Y-104319238D01*
X149200000Y-104319238D02*
X149200000Y-104319238D01*
X149200000Y-104319238D01*
X149200000Y-104319238D01*
X149200000Y-104319238D01*
X149200000Y-104319238D01*
X149200000Y-104319238D01*
X149200000Y-104319238D01*
X149200000Y-104319238D01*
X149200000Y-104319238D01*
X149200000Y-104319238D01*
X149200000Y-104319238D01*
X149200000Y-104319238D01*
X149200000Y-104319238D01*
D10*
D12*
X155450000Y-104319238D02*
X155450000Y-104319238D01*
X155450000Y-104319238D01*
X155450000Y-104319238D01*
X155450000Y-104319238D01*
X155450000Y-104319238D01*
X155450000Y-104319238D01*
X155450000Y-104319238D01*
X155450000Y-104319238D01*
X155450000Y-104319238D01*
X155450000Y-104319238D01*
X155450000Y-104319238D01*
X155450000Y-104319238D01*
X155450000Y-104319238D02*
X155450000Y-104319238D01*
X155450000Y-104319238D01*
X155450000Y-104319238D01*
X155450000Y-104319238D01*
X155450000Y-104319238D01*
X155450000Y-104319238D01*
X155450000Y-104319238D01*
X155450000Y-104319238D01*
X155450000Y-104319238D01*
X155450000Y-104319238D01*
D10*
D12*
X139050000Y-104319238D02*
X139050000Y-104319238D01*
X139050000Y-104319238D01*
X139050000Y-104319238D01*
X139050000Y-104319238D01*
X139050000Y-104319238D01*
X139050000Y-104319238D01*
X139050000Y-104319238D01*
X139050000Y-104319238D01*
X139050000Y-104319238D01*
X139050000Y-104319238D01*
X139050000Y-104319238D01*
X139050000Y-104319238D01*
X139050000Y-104319238D02*
X139050000Y-104319238D01*
X139050000Y-104319238D02*
X139050000Y-104319238D01*
X139050000Y-104319238D01*
X139050000Y-104319238D01*
X139050000Y-104319238D01*
D10*
X152285714Y-94778571D02*
X152142857Y-94826190D01*
X152095238Y-94873809D01*
X152047619Y-94969047D01*
X152047619Y-95111904D01*
X152095238Y-95207142D01*
X152142857Y-95254761D01*
X152238095Y-95302380D01*
X152619047Y-95302380D01*
X152619047Y-94302380D01*
X152285714Y-94302380D01*
X152190476Y-94350000D01*
X152142857Y-94397619D01*
X152095238Y-94492857D01*
X152095238Y-94588095D01*
X152142857Y-94683333D01*
X152190476Y-94730952D01*
X152285714Y-94778571D01*
X152619047Y-94778571D01*
X151761904Y-94302380D02*
X151190476Y-94302380D01*
X151476190Y-95302380D02*
X151476190Y-94302380D01*
X150333333Y-95302380D02*
X150904761Y-95302380D01*
X150619047Y-95302380D02*
X150619047Y-94302380D01*
X150714285Y-94445238D01*
X150809523Y-94540476D01*
X150904761Y-94588095D01*
X158116666Y-98432380D02*
X158450000Y-97956190D01*
X158688095Y-98432380D02*
X158688095Y-97432380D01*
X158307142Y-97432380D01*
X158211904Y-97480000D01*
X158164285Y-97527619D01*
X158116666Y-97622857D01*
X158116666Y-97765714D01*
X158164285Y-97860952D01*
X158211904Y-97908571D01*
X158307142Y-97956190D01*
X158688095Y-97956190D01*
X157735714Y-97527619D02*
X157688095Y-97480000D01*
X157592857Y-97432380D01*
X157354761Y-97432380D01*
X157259523Y-97480000D01*
X157211904Y-97527619D01*
X157164285Y-97622857D01*
X157164285Y-97718095D01*
X157211904Y-97860952D01*
X157783333Y-98432380D01*
X157164285Y-98432380D01*
X123179166Y-102072380D02*
X123512500Y-101596190D01*
X123750595Y-102072380D02*
X123750595Y-101072380D01*
X123369642Y-101072380D01*
X123274404Y-101120000D01*
X123226785Y-101167619D01*
X123179166Y-101262857D01*
X123179166Y-101405714D01*
X123226785Y-101500952D01*
X123274404Y-101548571D01*
X123369642Y-101596190D01*
X123750595Y-101596190D01*
X122226785Y-102072380D02*
X122798214Y-102072380D01*
X122512500Y-102072380D02*
X122512500Y-101072380D01*
X122607738Y-101215238D01*
X122702976Y-101310476D01*
X122798214Y-101358095D01*
X124004761Y-86266666D02*
X124052380Y-86409523D01*
X124052380Y-86647619D01*
X124004761Y-86742857D01*
X123957142Y-86790476D01*
X123861904Y-86838095D01*
X123766666Y-86838095D01*
X123671428Y-86790476D01*
X123623809Y-86742857D01*
X123576190Y-86647619D01*
X123528571Y-86457142D01*
X123480952Y-86361904D01*
X123433333Y-86314285D01*
X123338095Y-86266666D01*
X123242857Y-86266666D01*
X123147619Y-86314285D01*
X123100000Y-86361904D01*
X123052380Y-86457142D01*
X123052380Y-86695238D01*
X123100000Y-86838095D01*
X123052380Y-87171428D02*
X124052380Y-87409523D01*
X123338095Y-87600000D01*
X124052380Y-87790476D01*
X123052380Y-88028571D01*
X124052380Y-88933333D02*
X124052380Y-88361904D01*
X124052380Y-88647619D02*
X123052380Y-88647619D01*
X123195238Y-88552380D01*
X123290476Y-88457142D01*
X123338095Y-88361904D01*
M02*
