G04 #@! TF.GenerationSoftware,KiCad,Pcbnew,(5.1.5)-3*
G04 #@! TF.CreationDate,2020-02-02T01:24:49-05:00*
G04 #@! TF.ProjectId,Make717-PCBWay,4d616b65-3731-4372-9d50-43425761792e,rev?*
G04 #@! TF.SameCoordinates,Original*
G04 #@! TF.FileFunction,Soldermask,Bot*
G04 #@! TF.FilePolarity,Negative*
%FSLAX46Y46*%
G04 Gerber Fmt 4.6, Leading zero omitted, Abs format (unit mm)*
G04 Created by KiCad (PCBNEW (5.1.5)-3) date 2020-02-02 01:24:49*
%MOMM*%
%LPD*%
G04 APERTURE LIST*
%ADD10C,1.000000*%
%ADD11C,0.100000*%
%ADD12R,1.600000X2.700000*%
%ADD13R,2.900000X5.500000*%
%ADD14C,18.200000*%
G04 APERTURE END LIST*
D10*
X149300000Y-106700000D02*
G75*
G03X149300000Y-106700000I-100000J0D01*
G01*
X155550000Y-106700000D02*
G75*
G03X155550000Y-106700000I-100000J0D01*
G01*
X139150000Y-106700000D02*
G75*
G03X139150000Y-106700000I-100000J0D01*
G01*
D11*
G36*
X140061207Y-112976542D02*
G01*
X140092287Y-112981152D01*
X140122766Y-112988787D01*
X140152350Y-112999372D01*
X140180754Y-113012806D01*
X140207704Y-113028959D01*
X140232942Y-113047677D01*
X140256223Y-113068777D01*
X140277323Y-113092058D01*
X140296041Y-113117296D01*
X140312194Y-113144246D01*
X140325628Y-113172650D01*
X140336213Y-113202234D01*
X140343848Y-113232713D01*
X140348458Y-113263793D01*
X140350000Y-113295176D01*
X140350000Y-114804824D01*
X140348458Y-114836207D01*
X140343848Y-114867287D01*
X140336213Y-114897766D01*
X140325628Y-114927350D01*
X140312194Y-114955754D01*
X140296041Y-114982704D01*
X140277323Y-115007942D01*
X140256223Y-115031223D01*
X140232942Y-115052323D01*
X140207704Y-115071041D01*
X140180754Y-115087194D01*
X140152350Y-115100628D01*
X140122766Y-115111213D01*
X140092287Y-115118848D01*
X140061207Y-115123458D01*
X140029824Y-115125000D01*
X138845176Y-115125000D01*
X138813793Y-115123458D01*
X138782713Y-115118848D01*
X138752234Y-115111213D01*
X138722650Y-115100628D01*
X138694246Y-115087194D01*
X138667296Y-115071041D01*
X138642058Y-115052323D01*
X138618777Y-115031223D01*
X138597677Y-115007942D01*
X138578959Y-114982704D01*
X138562806Y-114955754D01*
X138549372Y-114927350D01*
X138538787Y-114897766D01*
X138531152Y-114867287D01*
X138526542Y-114836207D01*
X138525000Y-114804824D01*
X138525000Y-113295176D01*
X138526542Y-113263793D01*
X138531152Y-113232713D01*
X138538787Y-113202234D01*
X138549372Y-113172650D01*
X138562806Y-113144246D01*
X138578959Y-113117296D01*
X138597677Y-113092058D01*
X138618777Y-113068777D01*
X138642058Y-113047677D01*
X138667296Y-113028959D01*
X138694246Y-113012806D01*
X138722650Y-112999372D01*
X138752234Y-112988787D01*
X138782713Y-112981152D01*
X138813793Y-112976542D01*
X138845176Y-112975000D01*
X140029824Y-112975000D01*
X140061207Y-112976542D01*
G37*
G36*
X137086207Y-112976542D02*
G01*
X137117287Y-112981152D01*
X137147766Y-112988787D01*
X137177350Y-112999372D01*
X137205754Y-113012806D01*
X137232704Y-113028959D01*
X137257942Y-113047677D01*
X137281223Y-113068777D01*
X137302323Y-113092058D01*
X137321041Y-113117296D01*
X137337194Y-113144246D01*
X137350628Y-113172650D01*
X137361213Y-113202234D01*
X137368848Y-113232713D01*
X137373458Y-113263793D01*
X137375000Y-113295176D01*
X137375000Y-114804824D01*
X137373458Y-114836207D01*
X137368848Y-114867287D01*
X137361213Y-114897766D01*
X137350628Y-114927350D01*
X137337194Y-114955754D01*
X137321041Y-114982704D01*
X137302323Y-115007942D01*
X137281223Y-115031223D01*
X137257942Y-115052323D01*
X137232704Y-115071041D01*
X137205754Y-115087194D01*
X137177350Y-115100628D01*
X137147766Y-115111213D01*
X137117287Y-115118848D01*
X137086207Y-115123458D01*
X137054824Y-115125000D01*
X135870176Y-115125000D01*
X135838793Y-115123458D01*
X135807713Y-115118848D01*
X135777234Y-115111213D01*
X135747650Y-115100628D01*
X135719246Y-115087194D01*
X135692296Y-115071041D01*
X135667058Y-115052323D01*
X135643777Y-115031223D01*
X135622677Y-115007942D01*
X135603959Y-114982704D01*
X135587806Y-114955754D01*
X135574372Y-114927350D01*
X135563787Y-114897766D01*
X135556152Y-114867287D01*
X135551542Y-114836207D01*
X135550000Y-114804824D01*
X135550000Y-113295176D01*
X135551542Y-113263793D01*
X135556152Y-113232713D01*
X135563787Y-113202234D01*
X135574372Y-113172650D01*
X135587806Y-113144246D01*
X135603959Y-113117296D01*
X135622677Y-113092058D01*
X135643777Y-113068777D01*
X135667058Y-113047677D01*
X135692296Y-113028959D01*
X135719246Y-113012806D01*
X135747650Y-112999372D01*
X135777234Y-112988787D01*
X135807713Y-112981152D01*
X135838793Y-112976542D01*
X135870176Y-112975000D01*
X137054824Y-112975000D01*
X137086207Y-112976542D01*
G37*
D12*
X150600000Y-106700000D03*
X147800000Y-106700000D03*
X156850000Y-106700000D03*
X154050000Y-106700000D03*
X140450000Y-106700000D03*
X137650000Y-106700000D03*
D13*
X153400000Y-89300000D03*
X130500000Y-89300000D03*
D14*
X141950000Y-89300000D03*
D11*
G36*
X157086207Y-98726542D02*
G01*
X157117287Y-98731152D01*
X157147766Y-98738787D01*
X157177350Y-98749372D01*
X157205754Y-98762806D01*
X157232704Y-98778959D01*
X157257942Y-98797677D01*
X157281223Y-98818777D01*
X157302323Y-98842058D01*
X157321041Y-98867296D01*
X157337194Y-98894246D01*
X157350628Y-98922650D01*
X157361213Y-98952234D01*
X157368848Y-98982713D01*
X157373458Y-99013793D01*
X157375000Y-99045176D01*
X157375000Y-100554824D01*
X157373458Y-100586207D01*
X157368848Y-100617287D01*
X157361213Y-100647766D01*
X157350628Y-100677350D01*
X157337194Y-100705754D01*
X157321041Y-100732704D01*
X157302323Y-100757942D01*
X157281223Y-100781223D01*
X157257942Y-100802323D01*
X157232704Y-100821041D01*
X157205754Y-100837194D01*
X157177350Y-100850628D01*
X157147766Y-100861213D01*
X157117287Y-100868848D01*
X157086207Y-100873458D01*
X157054824Y-100875000D01*
X155870176Y-100875000D01*
X155838793Y-100873458D01*
X155807713Y-100868848D01*
X155777234Y-100861213D01*
X155747650Y-100850628D01*
X155719246Y-100837194D01*
X155692296Y-100821041D01*
X155667058Y-100802323D01*
X155643777Y-100781223D01*
X155622677Y-100757942D01*
X155603959Y-100732704D01*
X155587806Y-100705754D01*
X155574372Y-100677350D01*
X155563787Y-100647766D01*
X155556152Y-100617287D01*
X155551542Y-100586207D01*
X155550000Y-100554824D01*
X155550000Y-99045176D01*
X155551542Y-99013793D01*
X155556152Y-98982713D01*
X155563787Y-98952234D01*
X155574372Y-98922650D01*
X155587806Y-98894246D01*
X155603959Y-98867296D01*
X155622677Y-98842058D01*
X155643777Y-98818777D01*
X155667058Y-98797677D01*
X155692296Y-98778959D01*
X155719246Y-98762806D01*
X155747650Y-98749372D01*
X155777234Y-98738787D01*
X155807713Y-98731152D01*
X155838793Y-98726542D01*
X155870176Y-98725000D01*
X157054824Y-98725000D01*
X157086207Y-98726542D01*
G37*
G36*
X160061207Y-98726542D02*
G01*
X160092287Y-98731152D01*
X160122766Y-98738787D01*
X160152350Y-98749372D01*
X160180754Y-98762806D01*
X160207704Y-98778959D01*
X160232942Y-98797677D01*
X160256223Y-98818777D01*
X160277323Y-98842058D01*
X160296041Y-98867296D01*
X160312194Y-98894246D01*
X160325628Y-98922650D01*
X160336213Y-98952234D01*
X160343848Y-98982713D01*
X160348458Y-99013793D01*
X160350000Y-99045176D01*
X160350000Y-100554824D01*
X160348458Y-100586207D01*
X160343848Y-100617287D01*
X160336213Y-100647766D01*
X160325628Y-100677350D01*
X160312194Y-100705754D01*
X160296041Y-100732704D01*
X160277323Y-100757942D01*
X160256223Y-100781223D01*
X160232942Y-100802323D01*
X160207704Y-100821041D01*
X160180754Y-100837194D01*
X160152350Y-100850628D01*
X160122766Y-100861213D01*
X160092287Y-100868848D01*
X160061207Y-100873458D01*
X160029824Y-100875000D01*
X158845176Y-100875000D01*
X158813793Y-100873458D01*
X158782713Y-100868848D01*
X158752234Y-100861213D01*
X158722650Y-100850628D01*
X158694246Y-100837194D01*
X158667296Y-100821041D01*
X158642058Y-100802323D01*
X158618777Y-100781223D01*
X158597677Y-100757942D01*
X158578959Y-100732704D01*
X158562806Y-100705754D01*
X158549372Y-100677350D01*
X158538787Y-100647766D01*
X158531152Y-100617287D01*
X158526542Y-100586207D01*
X158525000Y-100554824D01*
X158525000Y-99045176D01*
X158526542Y-99013793D01*
X158531152Y-98982713D01*
X158538787Y-98952234D01*
X158549372Y-98922650D01*
X158562806Y-98894246D01*
X158578959Y-98867296D01*
X158597677Y-98842058D01*
X158618777Y-98818777D01*
X158642058Y-98797677D01*
X158667296Y-98778959D01*
X158694246Y-98762806D01*
X158722650Y-98749372D01*
X158752234Y-98738787D01*
X158782713Y-98731152D01*
X158813793Y-98726542D01*
X158845176Y-98725000D01*
X160029824Y-98725000D01*
X160061207Y-98726542D01*
G37*
G36*
X125123707Y-98726542D02*
G01*
X125154787Y-98731152D01*
X125185266Y-98738787D01*
X125214850Y-98749372D01*
X125243254Y-98762806D01*
X125270204Y-98778959D01*
X125295442Y-98797677D01*
X125318723Y-98818777D01*
X125339823Y-98842058D01*
X125358541Y-98867296D01*
X125374694Y-98894246D01*
X125388128Y-98922650D01*
X125398713Y-98952234D01*
X125406348Y-98982713D01*
X125410958Y-99013793D01*
X125412500Y-99045176D01*
X125412500Y-100554824D01*
X125410958Y-100586207D01*
X125406348Y-100617287D01*
X125398713Y-100647766D01*
X125388128Y-100677350D01*
X125374694Y-100705754D01*
X125358541Y-100732704D01*
X125339823Y-100757942D01*
X125318723Y-100781223D01*
X125295442Y-100802323D01*
X125270204Y-100821041D01*
X125243254Y-100837194D01*
X125214850Y-100850628D01*
X125185266Y-100861213D01*
X125154787Y-100868848D01*
X125123707Y-100873458D01*
X125092324Y-100875000D01*
X123907676Y-100875000D01*
X123876293Y-100873458D01*
X123845213Y-100868848D01*
X123814734Y-100861213D01*
X123785150Y-100850628D01*
X123756746Y-100837194D01*
X123729796Y-100821041D01*
X123704558Y-100802323D01*
X123681277Y-100781223D01*
X123660177Y-100757942D01*
X123641459Y-100732704D01*
X123625306Y-100705754D01*
X123611872Y-100677350D01*
X123601287Y-100647766D01*
X123593652Y-100617287D01*
X123589042Y-100586207D01*
X123587500Y-100554824D01*
X123587500Y-99045176D01*
X123589042Y-99013793D01*
X123593652Y-98982713D01*
X123601287Y-98952234D01*
X123611872Y-98922650D01*
X123625306Y-98894246D01*
X123641459Y-98867296D01*
X123660177Y-98842058D01*
X123681277Y-98818777D01*
X123704558Y-98797677D01*
X123729796Y-98778959D01*
X123756746Y-98762806D01*
X123785150Y-98749372D01*
X123814734Y-98738787D01*
X123845213Y-98731152D01*
X123876293Y-98726542D01*
X123907676Y-98725000D01*
X125092324Y-98725000D01*
X125123707Y-98726542D01*
G37*
G36*
X122148707Y-98726542D02*
G01*
X122179787Y-98731152D01*
X122210266Y-98738787D01*
X122239850Y-98749372D01*
X122268254Y-98762806D01*
X122295204Y-98778959D01*
X122320442Y-98797677D01*
X122343723Y-98818777D01*
X122364823Y-98842058D01*
X122383541Y-98867296D01*
X122399694Y-98894246D01*
X122413128Y-98922650D01*
X122423713Y-98952234D01*
X122431348Y-98982713D01*
X122435958Y-99013793D01*
X122437500Y-99045176D01*
X122437500Y-100554824D01*
X122435958Y-100586207D01*
X122431348Y-100617287D01*
X122423713Y-100647766D01*
X122413128Y-100677350D01*
X122399694Y-100705754D01*
X122383541Y-100732704D01*
X122364823Y-100757942D01*
X122343723Y-100781223D01*
X122320442Y-100802323D01*
X122295204Y-100821041D01*
X122268254Y-100837194D01*
X122239850Y-100850628D01*
X122210266Y-100861213D01*
X122179787Y-100868848D01*
X122148707Y-100873458D01*
X122117324Y-100875000D01*
X120932676Y-100875000D01*
X120901293Y-100873458D01*
X120870213Y-100868848D01*
X120839734Y-100861213D01*
X120810150Y-100850628D01*
X120781746Y-100837194D01*
X120754796Y-100821041D01*
X120729558Y-100802323D01*
X120706277Y-100781223D01*
X120685177Y-100757942D01*
X120666459Y-100732704D01*
X120650306Y-100705754D01*
X120636872Y-100677350D01*
X120626287Y-100647766D01*
X120618652Y-100617287D01*
X120614042Y-100586207D01*
X120612500Y-100554824D01*
X120612500Y-99045176D01*
X120614042Y-99013793D01*
X120618652Y-98982713D01*
X120626287Y-98952234D01*
X120636872Y-98922650D01*
X120650306Y-98894246D01*
X120666459Y-98867296D01*
X120685177Y-98842058D01*
X120706277Y-98818777D01*
X120729558Y-98797677D01*
X120754796Y-98778959D01*
X120781746Y-98762806D01*
X120810150Y-98749372D01*
X120839734Y-98738787D01*
X120870213Y-98731152D01*
X120901293Y-98726542D01*
X120932676Y-98725000D01*
X122117324Y-98725000D01*
X122148707Y-98726542D01*
G37*
G36*
X127339207Y-89751926D02*
G01*
X127378036Y-89757686D01*
X127416114Y-89767224D01*
X127453073Y-89780448D01*
X127488559Y-89797231D01*
X127522228Y-89817412D01*
X127553757Y-89840796D01*
X127582843Y-89867157D01*
X127609204Y-89896243D01*
X127632588Y-89927772D01*
X127652769Y-89961441D01*
X127669552Y-89996927D01*
X127682776Y-90033886D01*
X127692314Y-90071964D01*
X127698074Y-90110793D01*
X127700000Y-90150000D01*
X127700000Y-90950000D01*
X127698074Y-90989207D01*
X127692314Y-91028036D01*
X127682776Y-91066114D01*
X127669552Y-91103073D01*
X127652769Y-91138559D01*
X127632588Y-91172228D01*
X127609204Y-91203757D01*
X127582843Y-91232843D01*
X127553757Y-91259204D01*
X127522228Y-91282588D01*
X127488559Y-91302769D01*
X127453073Y-91319552D01*
X127416114Y-91332776D01*
X127378036Y-91342314D01*
X127339207Y-91348074D01*
X127300000Y-91350000D01*
X125200000Y-91350000D01*
X125160793Y-91348074D01*
X125121964Y-91342314D01*
X125083886Y-91332776D01*
X125046927Y-91319552D01*
X125011441Y-91302769D01*
X124977772Y-91282588D01*
X124946243Y-91259204D01*
X124917157Y-91232843D01*
X124890796Y-91203757D01*
X124867412Y-91172228D01*
X124847231Y-91138559D01*
X124830448Y-91103073D01*
X124817224Y-91066114D01*
X124807686Y-91028036D01*
X124801926Y-90989207D01*
X124800000Y-90950000D01*
X124800000Y-90150000D01*
X124801926Y-90110793D01*
X124807686Y-90071964D01*
X124817224Y-90033886D01*
X124830448Y-89996927D01*
X124847231Y-89961441D01*
X124867412Y-89927772D01*
X124890796Y-89896243D01*
X124917157Y-89867157D01*
X124946243Y-89840796D01*
X124977772Y-89817412D01*
X125011441Y-89797231D01*
X125046927Y-89780448D01*
X125083886Y-89767224D01*
X125121964Y-89757686D01*
X125160793Y-89751926D01*
X125200000Y-89750000D01*
X127300000Y-89750000D01*
X127339207Y-89751926D01*
G37*
G36*
X127339207Y-87251926D02*
G01*
X127378036Y-87257686D01*
X127416114Y-87267224D01*
X127453073Y-87280448D01*
X127488559Y-87297231D01*
X127522228Y-87317412D01*
X127553757Y-87340796D01*
X127582843Y-87367157D01*
X127609204Y-87396243D01*
X127632588Y-87427772D01*
X127652769Y-87461441D01*
X127669552Y-87496927D01*
X127682776Y-87533886D01*
X127692314Y-87571964D01*
X127698074Y-87610793D01*
X127700000Y-87650000D01*
X127700000Y-88450000D01*
X127698074Y-88489207D01*
X127692314Y-88528036D01*
X127682776Y-88566114D01*
X127669552Y-88603073D01*
X127652769Y-88638559D01*
X127632588Y-88672228D01*
X127609204Y-88703757D01*
X127582843Y-88732843D01*
X127553757Y-88759204D01*
X127522228Y-88782588D01*
X127488559Y-88802769D01*
X127453073Y-88819552D01*
X127416114Y-88832776D01*
X127378036Y-88842314D01*
X127339207Y-88848074D01*
X127300000Y-88850000D01*
X125200000Y-88850000D01*
X125160793Y-88848074D01*
X125121964Y-88842314D01*
X125083886Y-88832776D01*
X125046927Y-88819552D01*
X125011441Y-88802769D01*
X124977772Y-88782588D01*
X124946243Y-88759204D01*
X124917157Y-88732843D01*
X124890796Y-88703757D01*
X124867412Y-88672228D01*
X124847231Y-88638559D01*
X124830448Y-88603073D01*
X124817224Y-88566114D01*
X124807686Y-88528036D01*
X124801926Y-88489207D01*
X124800000Y-88450000D01*
X124800000Y-87650000D01*
X124801926Y-87610793D01*
X124807686Y-87571964D01*
X124817224Y-87533886D01*
X124830448Y-87496927D01*
X124847231Y-87461441D01*
X124867412Y-87427772D01*
X124890796Y-87396243D01*
X124917157Y-87367157D01*
X124946243Y-87340796D01*
X124977772Y-87317412D01*
X125011441Y-87297231D01*
X125046927Y-87280448D01*
X125083886Y-87267224D01*
X125121964Y-87257686D01*
X125160793Y-87251926D01*
X125200000Y-87250000D01*
X127300000Y-87250000D01*
X127339207Y-87251926D01*
G37*
G36*
X127339207Y-84751926D02*
G01*
X127378036Y-84757686D01*
X127416114Y-84767224D01*
X127453073Y-84780448D01*
X127488559Y-84797231D01*
X127522228Y-84817412D01*
X127553757Y-84840796D01*
X127582843Y-84867157D01*
X127609204Y-84896243D01*
X127632588Y-84927772D01*
X127652769Y-84961441D01*
X127669552Y-84996927D01*
X127682776Y-85033886D01*
X127692314Y-85071964D01*
X127698074Y-85110793D01*
X127700000Y-85150000D01*
X127700000Y-85950000D01*
X127698074Y-85989207D01*
X127692314Y-86028036D01*
X127682776Y-86066114D01*
X127669552Y-86103073D01*
X127652769Y-86138559D01*
X127632588Y-86172228D01*
X127609204Y-86203757D01*
X127582843Y-86232843D01*
X127553757Y-86259204D01*
X127522228Y-86282588D01*
X127488559Y-86302769D01*
X127453073Y-86319552D01*
X127416114Y-86332776D01*
X127378036Y-86342314D01*
X127339207Y-86348074D01*
X127300000Y-86350000D01*
X125200000Y-86350000D01*
X125160793Y-86348074D01*
X125121964Y-86342314D01*
X125083886Y-86332776D01*
X125046927Y-86319552D01*
X125011441Y-86302769D01*
X124977772Y-86282588D01*
X124946243Y-86259204D01*
X124917157Y-86232843D01*
X124890796Y-86203757D01*
X124867412Y-86172228D01*
X124847231Y-86138559D01*
X124830448Y-86103073D01*
X124817224Y-86066114D01*
X124807686Y-86028036D01*
X124801926Y-85989207D01*
X124800000Y-85950000D01*
X124800000Y-85150000D01*
X124801926Y-85110793D01*
X124807686Y-85071964D01*
X124817224Y-85033886D01*
X124830448Y-84996927D01*
X124847231Y-84961441D01*
X124867412Y-84927772D01*
X124890796Y-84896243D01*
X124917157Y-84867157D01*
X124946243Y-84840796D01*
X124977772Y-84817412D01*
X125011441Y-84797231D01*
X125046927Y-84780448D01*
X125083886Y-84767224D01*
X125121964Y-84757686D01*
X125160793Y-84751926D01*
X125200000Y-84750000D01*
X127300000Y-84750000D01*
X127339207Y-84751926D01*
G37*
G36*
X121839207Y-84751926D02*
G01*
X121878036Y-84757686D01*
X121916114Y-84767224D01*
X121953073Y-84780448D01*
X121988559Y-84797231D01*
X122022228Y-84817412D01*
X122053757Y-84840796D01*
X122082843Y-84867157D01*
X122109204Y-84896243D01*
X122132588Y-84927772D01*
X122152769Y-84961441D01*
X122169552Y-84996927D01*
X122182776Y-85033886D01*
X122192314Y-85071964D01*
X122198074Y-85110793D01*
X122200000Y-85150000D01*
X122200000Y-85950000D01*
X122198074Y-85989207D01*
X122192314Y-86028036D01*
X122182776Y-86066114D01*
X122169552Y-86103073D01*
X122152769Y-86138559D01*
X122132588Y-86172228D01*
X122109204Y-86203757D01*
X122082843Y-86232843D01*
X122053757Y-86259204D01*
X122022228Y-86282588D01*
X121988559Y-86302769D01*
X121953073Y-86319552D01*
X121916114Y-86332776D01*
X121878036Y-86342314D01*
X121839207Y-86348074D01*
X121800000Y-86350000D01*
X119700000Y-86350000D01*
X119660793Y-86348074D01*
X119621964Y-86342314D01*
X119583886Y-86332776D01*
X119546927Y-86319552D01*
X119511441Y-86302769D01*
X119477772Y-86282588D01*
X119446243Y-86259204D01*
X119417157Y-86232843D01*
X119390796Y-86203757D01*
X119367412Y-86172228D01*
X119347231Y-86138559D01*
X119330448Y-86103073D01*
X119317224Y-86066114D01*
X119307686Y-86028036D01*
X119301926Y-85989207D01*
X119300000Y-85950000D01*
X119300000Y-85150000D01*
X119301926Y-85110793D01*
X119307686Y-85071964D01*
X119317224Y-85033886D01*
X119330448Y-84996927D01*
X119347231Y-84961441D01*
X119367412Y-84927772D01*
X119390796Y-84896243D01*
X119417157Y-84867157D01*
X119446243Y-84840796D01*
X119477772Y-84817412D01*
X119511441Y-84797231D01*
X119546927Y-84780448D01*
X119583886Y-84767224D01*
X119621964Y-84757686D01*
X119660793Y-84751926D01*
X119700000Y-84750000D01*
X121800000Y-84750000D01*
X121839207Y-84751926D01*
G37*
G36*
X121839207Y-89751926D02*
G01*
X121878036Y-89757686D01*
X121916114Y-89767224D01*
X121953073Y-89780448D01*
X121988559Y-89797231D01*
X122022228Y-89817412D01*
X122053757Y-89840796D01*
X122082843Y-89867157D01*
X122109204Y-89896243D01*
X122132588Y-89927772D01*
X122152769Y-89961441D01*
X122169552Y-89996927D01*
X122182776Y-90033886D01*
X122192314Y-90071964D01*
X122198074Y-90110793D01*
X122200000Y-90150000D01*
X122200000Y-90950000D01*
X122198074Y-90989207D01*
X122192314Y-91028036D01*
X122182776Y-91066114D01*
X122169552Y-91103073D01*
X122152769Y-91138559D01*
X122132588Y-91172228D01*
X122109204Y-91203757D01*
X122082843Y-91232843D01*
X122053757Y-91259204D01*
X122022228Y-91282588D01*
X121988559Y-91302769D01*
X121953073Y-91319552D01*
X121916114Y-91332776D01*
X121878036Y-91342314D01*
X121839207Y-91348074D01*
X121800000Y-91350000D01*
X119700000Y-91350000D01*
X119660793Y-91348074D01*
X119621964Y-91342314D01*
X119583886Y-91332776D01*
X119546927Y-91319552D01*
X119511441Y-91302769D01*
X119477772Y-91282588D01*
X119446243Y-91259204D01*
X119417157Y-91232843D01*
X119390796Y-91203757D01*
X119367412Y-91172228D01*
X119347231Y-91138559D01*
X119330448Y-91103073D01*
X119317224Y-91066114D01*
X119307686Y-91028036D01*
X119301926Y-90989207D01*
X119300000Y-90950000D01*
X119300000Y-90150000D01*
X119301926Y-90110793D01*
X119307686Y-90071964D01*
X119317224Y-90033886D01*
X119330448Y-89996927D01*
X119347231Y-89961441D01*
X119367412Y-89927772D01*
X119390796Y-89896243D01*
X119417157Y-89867157D01*
X119446243Y-89840796D01*
X119477772Y-89817412D01*
X119511441Y-89797231D01*
X119546927Y-89780448D01*
X119583886Y-89767224D01*
X119621964Y-89757686D01*
X119660793Y-89751926D01*
X119700000Y-89750000D01*
X121800000Y-89750000D01*
X121839207Y-89751926D01*
G37*
G36*
X121839207Y-87251926D02*
G01*
X121878036Y-87257686D01*
X121916114Y-87267224D01*
X121953073Y-87280448D01*
X121988559Y-87297231D01*
X122022228Y-87317412D01*
X122053757Y-87340796D01*
X122082843Y-87367157D01*
X122109204Y-87396243D01*
X122132588Y-87427772D01*
X122152769Y-87461441D01*
X122169552Y-87496927D01*
X122182776Y-87533886D01*
X122192314Y-87571964D01*
X122198074Y-87610793D01*
X122200000Y-87650000D01*
X122200000Y-88450000D01*
X122198074Y-88489207D01*
X122192314Y-88528036D01*
X122182776Y-88566114D01*
X122169552Y-88603073D01*
X122152769Y-88638559D01*
X122132588Y-88672228D01*
X122109204Y-88703757D01*
X122082843Y-88732843D01*
X122053757Y-88759204D01*
X122022228Y-88782588D01*
X121988559Y-88802769D01*
X121953073Y-88819552D01*
X121916114Y-88832776D01*
X121878036Y-88842314D01*
X121839207Y-88848074D01*
X121800000Y-88850000D01*
X119700000Y-88850000D01*
X119660793Y-88848074D01*
X119621964Y-88842314D01*
X119583886Y-88832776D01*
X119546927Y-88819552D01*
X119511441Y-88802769D01*
X119477772Y-88782588D01*
X119446243Y-88759204D01*
X119417157Y-88732843D01*
X119390796Y-88703757D01*
X119367412Y-88672228D01*
X119347231Y-88638559D01*
X119330448Y-88603073D01*
X119317224Y-88566114D01*
X119307686Y-88528036D01*
X119301926Y-88489207D01*
X119300000Y-88450000D01*
X119300000Y-87650000D01*
X119301926Y-87610793D01*
X119307686Y-87571964D01*
X119317224Y-87533886D01*
X119330448Y-87496927D01*
X119347231Y-87461441D01*
X119367412Y-87427772D01*
X119390796Y-87396243D01*
X119417157Y-87367157D01*
X119446243Y-87340796D01*
X119477772Y-87317412D01*
X119511441Y-87297231D01*
X119546927Y-87280448D01*
X119583886Y-87267224D01*
X119621964Y-87257686D01*
X119660793Y-87251926D01*
X119700000Y-87250000D01*
X121800000Y-87250000D01*
X121839207Y-87251926D01*
G37*
M02*
