G04 #@! TF.GenerationSoftware,KiCad,Pcbnew,(5.1.5)-3*
G04 #@! TF.CreationDate,2020-02-02T01:24:49-05:00*
G04 #@! TF.ProjectId,Make717-PCBWay,4d616b65-3731-4372-9d50-43425761792e,rev?*
G04 #@! TF.SameCoordinates,Original*
G04 #@! TF.FileFunction,Soldermask,Top*
G04 #@! TF.FilePolarity,Negative*
%FSLAX46Y46*%
G04 Gerber Fmt 4.6, Leading zero omitted, Abs format (unit mm)*
G04 Created by KiCad (PCBNEW (5.1.5)-3) date 2020-02-02 01:24:49*
%MOMM*%
%LPD*%
G04 APERTURE LIST*
%ADD10C,0.010000*%
G04 APERTURE END LIST*
D10*
G36*
X138233901Y-72280922D02*
G01*
X139190307Y-72281686D01*
X140229379Y-72283086D01*
X141129167Y-72284678D01*
X142077087Y-72286526D01*
X142944266Y-72288269D01*
X143734630Y-72289958D01*
X144452106Y-72291642D01*
X145100620Y-72293371D01*
X145684096Y-72295197D01*
X146206462Y-72297169D01*
X146671643Y-72299336D01*
X147083565Y-72301750D01*
X147446154Y-72304461D01*
X147763336Y-72307518D01*
X148039037Y-72310971D01*
X148277183Y-72314872D01*
X148481699Y-72319270D01*
X148656513Y-72324215D01*
X148805550Y-72329757D01*
X148932735Y-72335947D01*
X149041995Y-72342834D01*
X149137255Y-72350470D01*
X149222442Y-72358903D01*
X149301482Y-72368185D01*
X149378300Y-72378365D01*
X149456823Y-72389494D01*
X149468834Y-72391225D01*
X150509926Y-72567437D01*
X151493581Y-72788895D01*
X152436715Y-73060343D01*
X153356241Y-73386523D01*
X154062000Y-73679360D01*
X155108527Y-74186324D01*
X156115276Y-74765719D01*
X157078215Y-75413730D01*
X157993315Y-76126542D01*
X158856544Y-76900338D01*
X159663871Y-77731303D01*
X160411266Y-78615620D01*
X161094698Y-79549474D01*
X161710136Y-80529048D01*
X162144924Y-81331379D01*
X162604364Y-82307588D01*
X162991501Y-83279024D01*
X163311007Y-84261232D01*
X163567556Y-85269753D01*
X163765820Y-86320130D01*
X163870168Y-87069834D01*
X163879602Y-87151953D01*
X163888233Y-87237781D01*
X163896096Y-87331217D01*
X163903227Y-87436161D01*
X163909661Y-87556514D01*
X163915434Y-87696177D01*
X163920582Y-87859048D01*
X163925138Y-88049029D01*
X163929141Y-88270019D01*
X163932623Y-88525919D01*
X163935622Y-88820629D01*
X163938173Y-89158049D01*
X163940311Y-89542080D01*
X163942071Y-89976622D01*
X163943490Y-90465574D01*
X163944603Y-91012838D01*
X163945444Y-91622313D01*
X163946050Y-92297900D01*
X163946457Y-93043498D01*
X163946699Y-93863009D01*
X163946812Y-94760332D01*
X163946834Y-95494167D01*
X163946872Y-96469258D01*
X163946913Y-97363746D01*
X163946848Y-98181695D01*
X163946567Y-98927168D01*
X163945961Y-99604228D01*
X163944920Y-100216940D01*
X163943334Y-100769366D01*
X163941094Y-101265571D01*
X163938090Y-101709618D01*
X163934213Y-102105571D01*
X163929353Y-102457492D01*
X163923400Y-102769447D01*
X163916246Y-103045497D01*
X163907779Y-103289708D01*
X163897892Y-103506141D01*
X163886474Y-103698862D01*
X163873415Y-103871933D01*
X163858606Y-104029418D01*
X163841938Y-104175381D01*
X163823300Y-104313886D01*
X163802584Y-104448995D01*
X163779680Y-104584772D01*
X163754478Y-104725281D01*
X163726868Y-104874586D01*
X163696742Y-105036750D01*
X163688272Y-105082667D01*
X163432523Y-106242536D01*
X163098582Y-107371960D01*
X162688315Y-108468046D01*
X162203588Y-109527903D01*
X161646266Y-110548640D01*
X161018214Y-111527363D01*
X160321299Y-112461182D01*
X159557387Y-113347206D01*
X158728342Y-114182541D01*
X157836030Y-114964297D01*
X156882318Y-115689583D01*
X156813667Y-115737911D01*
X155872420Y-116347145D01*
X154879360Y-116894647D01*
X153844824Y-117376179D01*
X152779148Y-117787505D01*
X151692671Y-118124387D01*
X150595729Y-118382588D01*
X150171829Y-118460286D01*
X150009370Y-118487828D01*
X149860193Y-118513030D01*
X149720111Y-118535999D01*
X149584935Y-118556842D01*
X149450476Y-118575667D01*
X149312545Y-118592581D01*
X149166954Y-118607690D01*
X149009514Y-118621101D01*
X148836037Y-118632923D01*
X148642333Y-118643261D01*
X148424215Y-118652224D01*
X148177493Y-118659917D01*
X147897978Y-118666449D01*
X147581483Y-118671927D01*
X147223818Y-118676456D01*
X146820794Y-118680146D01*
X146368224Y-118683102D01*
X145861918Y-118685432D01*
X145297687Y-118687243D01*
X144671344Y-118688641D01*
X143978698Y-118689736D01*
X143215563Y-118690632D01*
X142377748Y-118691438D01*
X141461066Y-118692260D01*
X141086834Y-118692603D01*
X140294651Y-118693264D01*
X139522771Y-118693760D01*
X138775679Y-118694095D01*
X138057860Y-118694270D01*
X137373798Y-118694291D01*
X136727979Y-118694162D01*
X136124888Y-118693884D01*
X135569010Y-118693464D01*
X135064829Y-118692903D01*
X134616831Y-118692205D01*
X134229501Y-118691375D01*
X133907324Y-118690416D01*
X133654785Y-118689332D01*
X133476368Y-118688126D01*
X133376559Y-118686801D01*
X133361000Y-118686309D01*
X132221787Y-118590590D01*
X131085018Y-118414551D01*
X129959205Y-118160780D01*
X128852859Y-117831862D01*
X127774492Y-117430385D01*
X126732615Y-116958933D01*
X126214744Y-116679009D01*
X147373126Y-116679009D01*
X147410827Y-116677638D01*
X147498807Y-116660201D01*
X147645908Y-116624804D01*
X147860974Y-116569551D01*
X148007380Y-116531082D01*
X149197921Y-116173268D01*
X150366057Y-115735465D01*
X151506186Y-115220664D01*
X152612708Y-114631858D01*
X153680021Y-113972040D01*
X154702524Y-113244202D01*
X155674616Y-112451337D01*
X155723160Y-112408843D01*
X156629524Y-111562422D01*
X157507865Y-110642081D01*
X158352905Y-109655453D01*
X159159371Y-108610171D01*
X159921988Y-107513868D01*
X160635479Y-106374177D01*
X161294571Y-105198731D01*
X161893989Y-103995163D01*
X162428456Y-102771106D01*
X162490877Y-102615928D01*
X162578965Y-102388414D01*
X162674804Y-102130110D01*
X162772508Y-101858035D01*
X162866188Y-101589206D01*
X162949955Y-101340638D01*
X163017923Y-101129350D01*
X163064202Y-100972359D01*
X163076506Y-100923417D01*
X163112334Y-100764667D01*
X162064613Y-100764667D01*
X162038114Y-100881084D01*
X161896781Y-101449178D01*
X161732754Y-102004817D01*
X161540302Y-102563380D01*
X161313696Y-103140249D01*
X161047206Y-103750804D01*
X160735101Y-104410424D01*
X160685664Y-104511167D01*
X160012190Y-105785321D01*
X159263398Y-107026428D01*
X158436685Y-108238700D01*
X158121512Y-108666188D01*
X157270505Y-109728308D01*
X156349014Y-110746427D01*
X155360779Y-111717279D01*
X154309542Y-112637597D01*
X153199041Y-113504116D01*
X152033016Y-114313570D01*
X150815209Y-115062692D01*
X150761348Y-115093726D01*
X150469481Y-115259501D01*
X150205438Y-115404451D01*
X149953438Y-115536183D01*
X149697698Y-115662306D01*
X149422436Y-115790429D01*
X149111871Y-115928161D01*
X148750219Y-116083109D01*
X148429632Y-116217841D01*
X148153232Y-116333653D01*
X147903333Y-116438945D01*
X147690334Y-116529288D01*
X147524637Y-116600254D01*
X147416640Y-116647411D01*
X147376861Y-116666209D01*
X147373126Y-116679009D01*
X126214744Y-116679009D01*
X125735740Y-116420094D01*
X125562753Y-116316762D01*
X124575852Y-115669391D01*
X123640159Y-114956389D01*
X122758828Y-114181458D01*
X121935010Y-113348303D01*
X121171855Y-112460627D01*
X120472517Y-111522135D01*
X119840146Y-110536531D01*
X119277893Y-109507518D01*
X118788911Y-108438801D01*
X118723502Y-108278834D01*
X118399621Y-107407003D01*
X118128299Y-106525782D01*
X117904503Y-105615870D01*
X117723200Y-104657966D01*
X117645419Y-104144327D01*
X117634179Y-104062696D01*
X117623897Y-103983127D01*
X117614521Y-103901652D01*
X117606002Y-103814304D01*
X117598286Y-103717119D01*
X117591324Y-103606129D01*
X117585063Y-103477368D01*
X117579452Y-103326870D01*
X117574441Y-103150668D01*
X117569977Y-102944797D01*
X117566009Y-102705289D01*
X117562487Y-102428180D01*
X117559358Y-102109501D01*
X117556572Y-101745288D01*
X117554076Y-101331573D01*
X117551821Y-100864391D01*
X117549754Y-100339774D01*
X117547824Y-99753758D01*
X117545981Y-99102375D01*
X117544171Y-98381660D01*
X117542345Y-97587645D01*
X117540451Y-96716366D01*
X117538717Y-95896334D01*
X117538141Y-95616303D01*
X120469174Y-95616303D01*
X120472083Y-96051077D01*
X120479783Y-96459668D01*
X120492360Y-96826408D01*
X120509899Y-97135629D01*
X120525719Y-97314500D01*
X120711748Y-98670203D01*
X120970880Y-99983709D01*
X121303834Y-101256744D01*
X121711333Y-102491038D01*
X122194097Y-103688318D01*
X122752848Y-104850311D01*
X123388307Y-105978747D01*
X124101195Y-107075353D01*
X124892234Y-108141858D01*
X125207885Y-108532834D01*
X125424315Y-108784128D01*
X125691543Y-109077132D01*
X125996112Y-109398414D01*
X126324568Y-109734548D01*
X126663455Y-110072102D01*
X126999318Y-110397650D01*
X127318703Y-110697761D01*
X127608154Y-110959006D01*
X127820668Y-111140531D01*
X128872263Y-111953227D01*
X129964987Y-112693580D01*
X131095619Y-113360306D01*
X132260937Y-113952123D01*
X133457718Y-114467749D01*
X134682741Y-114905900D01*
X135932784Y-115265295D01*
X137204625Y-115544650D01*
X138495044Y-115742683D01*
X139647500Y-115848925D01*
X139863600Y-115858639D01*
X140144452Y-115865247D01*
X140471271Y-115868852D01*
X140825277Y-115869561D01*
X141187686Y-115867476D01*
X141539717Y-115862704D01*
X141862586Y-115855348D01*
X142137511Y-115845514D01*
X142337788Y-115833925D01*
X143672850Y-115689983D01*
X144982063Y-115465620D01*
X146263854Y-115161475D01*
X147516652Y-114778188D01*
X148738882Y-114316399D01*
X149928972Y-113776748D01*
X151085348Y-113159873D01*
X152206439Y-112466416D01*
X153290671Y-111697015D01*
X154105977Y-111047750D01*
X154389393Y-110801891D01*
X154709776Y-110509012D01*
X155050493Y-110185472D01*
X155394909Y-109847626D01*
X155726392Y-109511831D01*
X156028308Y-109194444D01*
X156284023Y-108911822D01*
X156319040Y-108871500D01*
X156684194Y-108448167D01*
X155605930Y-108436869D01*
X155276394Y-108433176D01*
X155021853Y-108429286D01*
X154832641Y-108424347D01*
X154699089Y-108417503D01*
X154611528Y-108407900D01*
X154560291Y-108394685D01*
X154535711Y-108377004D01*
X154528117Y-108354001D01*
X154527667Y-108341619D01*
X154519896Y-108298441D01*
X154484830Y-108273224D01*
X154404834Y-108261239D01*
X154262277Y-108257761D01*
X154214513Y-108257667D01*
X153901358Y-108257667D01*
X153856552Y-107993084D01*
X153725318Y-107091346D01*
X153648073Y-106251942D01*
X153627295Y-105548334D01*
X154184159Y-105548334D01*
X154188503Y-105831309D01*
X154200435Y-106130574D01*
X154218727Y-106434367D01*
X154242147Y-106730925D01*
X154269466Y-107008486D01*
X154299454Y-107255290D01*
X154330881Y-107459573D01*
X154362518Y-107609575D01*
X154393134Y-107693534D01*
X154409910Y-107707334D01*
X154428715Y-107671104D01*
X154425669Y-107582593D01*
X154423667Y-107569750D01*
X154373041Y-107192612D01*
X154336945Y-106762798D01*
X154315741Y-106303561D01*
X154309788Y-105838149D01*
X154319447Y-105389814D01*
X154345078Y-104981807D01*
X154379028Y-104688502D01*
X154466082Y-104200296D01*
X154578330Y-103756026D01*
X154722349Y-103343428D01*
X154904717Y-102950241D01*
X155132010Y-102564200D01*
X155410805Y-102173043D01*
X155747680Y-101764505D01*
X156149212Y-101326324D01*
X156224042Y-101248348D01*
X156611430Y-100840908D01*
X156939960Y-100480622D01*
X157214997Y-100159469D01*
X157441901Y-99869428D01*
X157626035Y-99602477D01*
X157772760Y-99350593D01*
X157887439Y-99105755D01*
X157975433Y-98859943D01*
X158042105Y-98605132D01*
X158064861Y-98494430D01*
X158108120Y-98229645D01*
X158124694Y-98030040D01*
X158114568Y-97900349D01*
X158077727Y-97845302D01*
X158067029Y-97843667D01*
X158000562Y-97882206D01*
X157962771Y-97988394D01*
X157956667Y-98073191D01*
X157940140Y-98215307D01*
X157895522Y-98409733D01*
X157830261Y-98631932D01*
X157751802Y-98857365D01*
X157667592Y-99061494D01*
X157637718Y-99124207D01*
X157509580Y-99354691D01*
X157343564Y-99605634D01*
X157134404Y-99883652D01*
X156876833Y-100195361D01*
X156565584Y-100547377D01*
X156195390Y-100946313D01*
X156143273Y-101001321D01*
X155923149Y-101235964D01*
X155708175Y-101470232D01*
X155509951Y-101691104D01*
X155340072Y-101885554D01*
X155210137Y-102040559D01*
X155153426Y-102112876D01*
X154850899Y-102572249D01*
X154607463Y-103064547D01*
X154421097Y-103596928D01*
X154289781Y-104176552D01*
X154211495Y-104810580D01*
X154184218Y-105506171D01*
X154184159Y-105548334D01*
X153627295Y-105548334D01*
X153625035Y-105471807D01*
X153656417Y-104747876D01*
X153742437Y-104077084D01*
X153883311Y-103456369D01*
X154079255Y-102882664D01*
X154242230Y-102521500D01*
X154374808Y-102272139D01*
X154519528Y-102035297D01*
X154686163Y-101798150D01*
X154884488Y-101547873D01*
X155124278Y-101271641D01*
X155415308Y-100956630D01*
X155514635Y-100852056D01*
X155893011Y-100451722D01*
X156214431Y-100101503D01*
X156483929Y-99793844D01*
X156706540Y-99521194D01*
X156887298Y-99275997D01*
X157031237Y-99050699D01*
X157143390Y-98837748D01*
X157228794Y-98629589D01*
X157292481Y-98418669D01*
X157339485Y-98197433D01*
X157357344Y-98087084D01*
X157393516Y-97843667D01*
X155304425Y-97843667D01*
X154830463Y-97843596D01*
X154434212Y-97843196D01*
X154108715Y-97842184D01*
X153847015Y-97840278D01*
X153642155Y-97837198D01*
X153487180Y-97832660D01*
X153375132Y-97826382D01*
X153299056Y-97818084D01*
X153251994Y-97807483D01*
X153226991Y-97794296D01*
X153217090Y-97778242D01*
X153215334Y-97759040D01*
X153215334Y-97759000D01*
X153208263Y-97716816D01*
X153175698Y-97691533D01*
X153100607Y-97678896D01*
X152965959Y-97674645D01*
X152876667Y-97674334D01*
X152538000Y-97674334D01*
X152538000Y-96467834D01*
X153088334Y-96467834D01*
X153089433Y-96720998D01*
X153093480Y-96901114D01*
X153101597Y-97019780D01*
X153114907Y-97088593D01*
X153134531Y-97119152D01*
X153151834Y-97124000D01*
X153176333Y-97112638D01*
X153193764Y-97070818D01*
X153205248Y-96986942D01*
X153211907Y-96849412D01*
X153214864Y-96646631D01*
X153215334Y-96467834D01*
X153214234Y-96214669D01*
X153210187Y-96034553D01*
X153202070Y-95915887D01*
X153188760Y-95847074D01*
X153169136Y-95816515D01*
X153151834Y-95811667D01*
X153127334Y-95823029D01*
X153109903Y-95864849D01*
X153098419Y-95948725D01*
X153091760Y-96086255D01*
X153088803Y-96289036D01*
X153088334Y-96467834D01*
X152538000Y-96467834D01*
X152538000Y-95261334D01*
X160454334Y-95261334D01*
X160454334Y-95811667D01*
X160720531Y-95811667D01*
X160694779Y-96859417D01*
X160675871Y-97418987D01*
X160646432Y-97910695D01*
X160603221Y-98351033D01*
X160542997Y-98756492D01*
X160462518Y-99143564D01*
X160358542Y-99528737D01*
X160227830Y-99928505D01*
X160067138Y-100359358D01*
X159948796Y-100654803D01*
X159836936Y-100919102D01*
X159736591Y-101126521D01*
X159632814Y-101298436D01*
X159510660Y-101456224D01*
X159355183Y-101621259D01*
X159151437Y-101814919D01*
X159112750Y-101850550D01*
X158797514Y-102143063D01*
X158539617Y-102389661D01*
X158331371Y-102598646D01*
X158165083Y-102778319D01*
X158033065Y-102936984D01*
X157927625Y-103082942D01*
X157842603Y-103221773D01*
X157627063Y-103681646D01*
X157461963Y-104199623D01*
X157348944Y-104764617D01*
X157289643Y-105365547D01*
X157285701Y-105991326D01*
X157338641Y-106629976D01*
X157374915Y-106921417D01*
X157404291Y-107132886D01*
X157434686Y-107266028D01*
X157474017Y-107322490D01*
X157530202Y-107303915D01*
X157611156Y-107211950D01*
X157724798Y-107048240D01*
X157879044Y-106814431D01*
X157921028Y-106751015D01*
X158576696Y-105704591D01*
X159154926Y-104654246D01*
X159662308Y-103585682D01*
X160105432Y-102484597D01*
X160490887Y-101336693D01*
X160622592Y-100888836D01*
X160934249Y-99635065D01*
X161163622Y-98366796D01*
X161310537Y-97088601D01*
X161374817Y-95805052D01*
X161356286Y-94520723D01*
X161254768Y-93240185D01*
X161070086Y-91968011D01*
X160983590Y-91514834D01*
X160917438Y-91191701D01*
X160864671Y-90942674D01*
X160822536Y-90758743D01*
X160788277Y-90630897D01*
X160759143Y-90550127D01*
X160732379Y-90507424D01*
X160705232Y-90493778D01*
X160674949Y-90500180D01*
X160673654Y-90500718D01*
X160570439Y-90544152D01*
X160479092Y-90581104D01*
X160392055Y-90612135D01*
X160301769Y-90637805D01*
X160200677Y-90658676D01*
X160081222Y-90675310D01*
X159935845Y-90688266D01*
X159756989Y-90698106D01*
X159537097Y-90705392D01*
X159268609Y-90710684D01*
X158943970Y-90714544D01*
X158555620Y-90717532D01*
X158096003Y-90720209D01*
X157687362Y-90722420D01*
X155280224Y-90735596D01*
X155310390Y-91019381D01*
X155394026Y-91472362D01*
X155541827Y-91886151D01*
X155749050Y-92253388D01*
X156010955Y-92566710D01*
X156322801Y-92818756D01*
X156552063Y-92947202D01*
X156680778Y-93005647D01*
X156788021Y-93044052D01*
X156897764Y-93066577D01*
X157033976Y-93077379D01*
X157220627Y-93080616D01*
X157321667Y-93080720D01*
X157558706Y-93077307D01*
X157736156Y-93065434D01*
X157878930Y-93041893D01*
X158011943Y-93003473D01*
X158062500Y-92985282D01*
X158314750Y-92869719D01*
X158583612Y-92703532D01*
X158877604Y-92480602D01*
X159205246Y-92194809D01*
X159345168Y-92063866D01*
X159516344Y-91905201D01*
X159675034Y-91765784D01*
X159807288Y-91657320D01*
X159899158Y-91591512D01*
X159922785Y-91579239D01*
X160120420Y-91538546D01*
X160349004Y-91543390D01*
X160569902Y-91591074D01*
X160667614Y-91631250D01*
X160853556Y-91767074D01*
X160975849Y-91948938D01*
X161035731Y-92168499D01*
X161034445Y-92417413D01*
X160973230Y-92687338D01*
X160853328Y-92969929D01*
X160675979Y-93256845D01*
X160442425Y-93539741D01*
X160373171Y-93611084D01*
X159986488Y-93948388D01*
X159565955Y-94220058D01*
X159104791Y-94428738D01*
X158596216Y-94577073D01*
X158033448Y-94667709D01*
X157584184Y-94698971D01*
X156976268Y-94698719D01*
X156428283Y-94649712D01*
X155929197Y-94549378D01*
X155467978Y-94395143D01*
X155033593Y-94184433D01*
X154817819Y-94053740D01*
X154395992Y-93731475D01*
X154019488Y-93342929D01*
X153694776Y-92897047D01*
X153428325Y-92402772D01*
X153226606Y-91869050D01*
X153218802Y-91843063D01*
X153104121Y-91353205D01*
X153031558Y-90812870D01*
X153001438Y-90245214D01*
X153014081Y-89673389D01*
X153048225Y-89334667D01*
X155288054Y-89334667D01*
X158982422Y-89334667D01*
X158952170Y-89091250D01*
X158864929Y-88652549D01*
X158720343Y-88259934D01*
X158522744Y-87919688D01*
X158276465Y-87638095D01*
X157985835Y-87421439D01*
X157714299Y-87295525D01*
X157443742Y-87233611D01*
X157136570Y-87217035D01*
X156824711Y-87244153D01*
X156540091Y-87313322D01*
X156420075Y-87362149D01*
X156132703Y-87544169D01*
X155875553Y-87794200D01*
X155663479Y-88096992D01*
X155613930Y-88189689D01*
X155552696Y-88319992D01*
X155500817Y-88452244D01*
X155453212Y-88603856D01*
X155404801Y-88792242D01*
X155350503Y-89034815D01*
X155307664Y-89239417D01*
X155288054Y-89334667D01*
X153048225Y-89334667D01*
X153069810Y-89120551D01*
X153168947Y-88609854D01*
X153173580Y-88591566D01*
X153362645Y-88003103D01*
X153612712Y-87472562D01*
X153921351Y-87001791D01*
X154286130Y-86592634D01*
X154704618Y-86246938D01*
X155174384Y-85966548D01*
X155692997Y-85753311D01*
X156258026Y-85609072D01*
X156867040Y-85535678D01*
X157210795Y-85526144D01*
X157683337Y-85544336D01*
X158102903Y-85598567D01*
X158494833Y-85692701D01*
X158665750Y-85747998D01*
X158810584Y-85795465D01*
X158918595Y-85825234D01*
X158970630Y-85832185D01*
X158972667Y-85830037D01*
X158951522Y-85777353D01*
X158892791Y-85664823D01*
X158803528Y-85504543D01*
X158690786Y-85308608D01*
X158561621Y-85089114D01*
X158423086Y-84858156D01*
X158282237Y-84627831D01*
X158146126Y-84410234D01*
X158127973Y-84381667D01*
X157415195Y-83339510D01*
X156630808Y-82336707D01*
X155781285Y-81379870D01*
X154873095Y-80475609D01*
X153912711Y-79630537D01*
X152906602Y-78851266D01*
X152305167Y-78432383D01*
X151834698Y-78123548D01*
X151404078Y-77854420D01*
X150988130Y-77610486D01*
X150561675Y-77377230D01*
X150099538Y-77140139D01*
X149849834Y-77016896D01*
X148656577Y-76480630D01*
X147436886Y-76023433D01*
X146194792Y-75645894D01*
X144934328Y-75348606D01*
X143659527Y-75132157D01*
X142374420Y-74997138D01*
X141083041Y-74944140D01*
X139789423Y-74973754D01*
X138497596Y-75086569D01*
X137573167Y-75219260D01*
X136281052Y-75477669D01*
X135018348Y-75814543D01*
X133787738Y-76228006D01*
X132591902Y-76716186D01*
X131433523Y-77277209D01*
X130315283Y-77909203D01*
X129239863Y-78610293D01*
X128209945Y-79378607D01*
X127228210Y-80212270D01*
X126297341Y-81109411D01*
X125420020Y-82068155D01*
X124598928Y-83086629D01*
X123836746Y-84162960D01*
X123136157Y-85295275D01*
X123127735Y-85309890D01*
X122873601Y-85751281D01*
X123001017Y-85858494D01*
X123110492Y-85982937D01*
X123212260Y-86152665D01*
X123289928Y-86334571D01*
X123327109Y-86495544D01*
X123328235Y-86519500D01*
X123339046Y-86648034D01*
X123373624Y-86703296D01*
X123439342Y-86686383D01*
X123543570Y-86598387D01*
X123584217Y-86557500D01*
X123722224Y-86427515D01*
X123890688Y-86285591D01*
X124026500Y-86182015D01*
X124387142Y-85950970D01*
X124741675Y-85783494D01*
X125111268Y-85673008D01*
X125517091Y-85612933D01*
X125910334Y-85596574D01*
X126271482Y-85605764D01*
X126575870Y-85639824D01*
X126849076Y-85703919D01*
X127116680Y-85803213D01*
X127258638Y-85868775D01*
X127454906Y-85985987D01*
X127671265Y-86149665D01*
X127883559Y-86338402D01*
X128067633Y-86530790D01*
X128195198Y-86698770D01*
X128299896Y-86865482D01*
X128505209Y-86640837D01*
X128863478Y-86305479D01*
X129273709Y-86020173D01*
X129716072Y-85797033D01*
X130101334Y-85665611D01*
X130347966Y-85620654D01*
X130648669Y-85597140D01*
X130975702Y-85594714D01*
X131301324Y-85613019D01*
X131597793Y-85651702D01*
X131758858Y-85686838D01*
X132214058Y-85843875D01*
X132606028Y-86056434D01*
X132936070Y-86325955D01*
X133205490Y-86653880D01*
X133415592Y-87041648D01*
X133567679Y-87490700D01*
X133623951Y-87747167D01*
X133635521Y-87832467D01*
X133645501Y-87957095D01*
X133653978Y-88126116D01*
X133661039Y-88344597D01*
X133666770Y-88617606D01*
X133671257Y-88950209D01*
X133674587Y-89347472D01*
X133676846Y-89814462D01*
X133678122Y-90356247D01*
X133678500Y-90943334D01*
X133678500Y-93843167D01*
X133581980Y-94052503D01*
X133450106Y-94297431D01*
X133305194Y-94476365D01*
X133130302Y-94607886D01*
X133026862Y-94661425D01*
X132794220Y-94736423D01*
X132532446Y-94769402D01*
X132274376Y-94759075D01*
X132052845Y-94704156D01*
X132042759Y-94699979D01*
X131825863Y-94569606D01*
X131628352Y-94380911D01*
X131476293Y-94159975D01*
X131450515Y-94107396D01*
X131350241Y-93885500D01*
X131324396Y-91260834D01*
X131318492Y-90684259D01*
X131312602Y-90185723D01*
X131306206Y-89758598D01*
X131298784Y-89396259D01*
X131289818Y-89092077D01*
X131278789Y-88839426D01*
X131265177Y-88631680D01*
X131248464Y-88462211D01*
X131228129Y-88324393D01*
X131203654Y-88211600D01*
X131174520Y-88117204D01*
X131140207Y-88034579D01*
X131100196Y-87957097D01*
X131060179Y-87888433D01*
X130900725Y-87684221D01*
X130703604Y-87547182D01*
X130458668Y-87472126D01*
X130209073Y-87453185D01*
X130015253Y-87461192D01*
X129860631Y-87491824D01*
X129700694Y-87555000D01*
X129655865Y-87576453D01*
X129387863Y-87744171D01*
X129147577Y-87963830D01*
X128957708Y-88212787D01*
X128888427Y-88341932D01*
X128841362Y-88449551D01*
X128800947Y-88556302D01*
X128766569Y-88669563D01*
X128737615Y-88796712D01*
X128713474Y-88945125D01*
X128693532Y-89122179D01*
X128677177Y-89335252D01*
X128663798Y-89591722D01*
X128652780Y-89898964D01*
X128643513Y-90264357D01*
X128635382Y-90695278D01*
X128627777Y-91199105D01*
X128623256Y-91536000D01*
X128616352Y-92060288D01*
X128609855Y-92507071D01*
X128603000Y-92883503D01*
X128595020Y-93196739D01*
X128585149Y-93453932D01*
X128572621Y-93662237D01*
X128556669Y-93828806D01*
X128536526Y-93960794D01*
X128511427Y-94065356D01*
X128480606Y-94149644D01*
X128443294Y-94220814D01*
X128398728Y-94286018D01*
X128346139Y-94352411D01*
X128317869Y-94386745D01*
X128103683Y-94582549D01*
X127841573Y-94708700D01*
X127532096Y-94764959D01*
X127433303Y-94768167D01*
X127248610Y-94763255D01*
X127111427Y-94741964D01*
X126984990Y-94696046D01*
X126882969Y-94644715D01*
X126657677Y-94479323D01*
X126470162Y-94252716D01*
X126337231Y-93985703D01*
X126327233Y-93956506D01*
X126315398Y-93891215D01*
X126304546Y-93768411D01*
X126294583Y-93584631D01*
X126285413Y-93336411D01*
X126276942Y-93020289D01*
X126269074Y-92632799D01*
X126261715Y-92170480D01*
X126254768Y-91629867D01*
X126249183Y-91112667D01*
X126243475Y-90562303D01*
X126238083Y-90089997D01*
X126232778Y-89689145D01*
X126227329Y-89353139D01*
X126221504Y-89075373D01*
X126215075Y-88849242D01*
X126207809Y-88668139D01*
X126199478Y-88525459D01*
X126189851Y-88414594D01*
X126178697Y-88328940D01*
X126165785Y-88261890D01*
X126150886Y-88206837D01*
X126147459Y-88196108D01*
X126027804Y-87910259D01*
X125876200Y-87699507D01*
X125684240Y-87557622D01*
X125443520Y-87478374D01*
X125148334Y-87455507D01*
X124791205Y-87484563D01*
X124492186Y-87567066D01*
X124241228Y-87706239D01*
X124158624Y-87772668D01*
X124025209Y-87904272D01*
X123919280Y-88046769D01*
X123831059Y-88218893D01*
X123750765Y-88439379D01*
X123677038Y-88695236D01*
X123653469Y-88784674D01*
X123633487Y-88867331D01*
X123616694Y-88951002D01*
X123602692Y-89043483D01*
X123591085Y-89152570D01*
X123581474Y-89286059D01*
X123573462Y-89451745D01*
X123566652Y-89657426D01*
X123560645Y-89910895D01*
X123555045Y-90219949D01*
X123549453Y-90592385D01*
X123543472Y-91035997D01*
X123538635Y-91409000D01*
X123530707Y-91972231D01*
X123522449Y-92454751D01*
X123513727Y-92860514D01*
X123504412Y-93193475D01*
X123494369Y-93457589D01*
X123483468Y-93656811D01*
X123471576Y-93795096D01*
X123458562Y-93876398D01*
X123456024Y-93885500D01*
X123322001Y-94203980D01*
X123140471Y-94455041D01*
X122913264Y-94636435D01*
X122798834Y-94693794D01*
X122623428Y-94741273D01*
X122404413Y-94763178D01*
X122176464Y-94759270D01*
X121974252Y-94729314D01*
X121882759Y-94700053D01*
X121665717Y-94569505D01*
X121468123Y-94380648D01*
X121316058Y-94159582D01*
X121290478Y-94107396D01*
X121266594Y-94053045D01*
X121246742Y-93999804D01*
X121230448Y-93939474D01*
X121217240Y-93863854D01*
X121206644Y-93764743D01*
X121198187Y-93633940D01*
X121191397Y-93463244D01*
X121185800Y-93244454D01*
X121180922Y-92969370D01*
X121176292Y-92629790D01*
X121171435Y-92217514D01*
X121169000Y-92001667D01*
X121164061Y-91616073D01*
X121158341Y-91261629D01*
X121152055Y-90946206D01*
X121145416Y-90677675D01*
X121138637Y-90463907D01*
X121131933Y-90312772D01*
X121125517Y-90232140D01*
X121120740Y-90223667D01*
X120871658Y-91311471D01*
X120669740Y-92438081D01*
X120547524Y-93335167D01*
X120523490Y-93598030D01*
X120503731Y-93928714D01*
X120488335Y-94311550D01*
X120477386Y-94730872D01*
X120470970Y-95171012D01*
X120469174Y-95616303D01*
X117538141Y-95616303D01*
X117536701Y-94916605D01*
X117534999Y-94017456D01*
X117533680Y-93194799D01*
X117532816Y-92444548D01*
X117532476Y-91762616D01*
X117532732Y-91144916D01*
X117533655Y-90587360D01*
X117534975Y-90188291D01*
X118205667Y-90188291D01*
X118211150Y-90221975D01*
X118236888Y-90244102D01*
X118296810Y-90256534D01*
X118404847Y-90261131D01*
X118574929Y-90259757D01*
X118717707Y-90256720D01*
X119229747Y-90244834D01*
X119348914Y-89779167D01*
X119574595Y-89008227D01*
X119865597Y-88198005D01*
X120217442Y-87357137D01*
X120625649Y-86494260D01*
X121085738Y-85618011D01*
X121593231Y-84737026D01*
X122143646Y-83859940D01*
X122732506Y-82995392D01*
X123197695Y-82359062D01*
X124057170Y-81288752D01*
X124986042Y-80266144D01*
X125982948Y-79292447D01*
X127046526Y-78368872D01*
X128175412Y-77496630D01*
X129368244Y-76676931D01*
X130136502Y-76197328D01*
X130720349Y-75860672D01*
X131324638Y-75542149D01*
X131968266Y-75232390D01*
X132670133Y-74922029D01*
X132928315Y-74813490D01*
X133189529Y-74703937D01*
X133421458Y-74604670D01*
X133613689Y-74520312D01*
X133755810Y-74455483D01*
X133837410Y-74414806D01*
X133852880Y-74403103D01*
X133803468Y-74404236D01*
X133685892Y-74427648D01*
X133512642Y-74469845D01*
X133296203Y-74527334D01*
X133049064Y-74596624D01*
X132783710Y-74674222D01*
X132512630Y-74756634D01*
X132248309Y-74840370D01*
X132027500Y-74913643D01*
X130858471Y-75355894D01*
X129712374Y-75877650D01*
X128597013Y-76475111D01*
X127730667Y-77005963D01*
X126773814Y-77673808D01*
X125839247Y-78419493D01*
X124930719Y-79238241D01*
X124051984Y-80125279D01*
X123206796Y-81075831D01*
X122398908Y-82085123D01*
X121632074Y-83148379D01*
X120910048Y-84260826D01*
X120236582Y-85417688D01*
X119615431Y-86614191D01*
X119050349Y-87845560D01*
X118868451Y-88279152D01*
X118772002Y-88521065D01*
X118670597Y-88786495D01*
X118568814Y-89062257D01*
X118471229Y-89335166D01*
X118382420Y-89592039D01*
X118306963Y-89819690D01*
X118249436Y-90004936D01*
X118214415Y-90134593D01*
X118205667Y-90188291D01*
X117534975Y-90188291D01*
X117535314Y-90085863D01*
X117537781Y-89636337D01*
X117541126Y-89234696D01*
X117545420Y-88876851D01*
X117550734Y-88558718D01*
X117557138Y-88276208D01*
X117564703Y-88025235D01*
X117573499Y-87801712D01*
X117583597Y-87601552D01*
X117595069Y-87420668D01*
X117607984Y-87254973D01*
X117622413Y-87100381D01*
X117638427Y-86952804D01*
X117656096Y-86808155D01*
X117675492Y-86662349D01*
X117696684Y-86511297D01*
X117701564Y-86477167D01*
X117908026Y-85330904D01*
X118194003Y-84208626D01*
X118556816Y-83114009D01*
X118993785Y-82050731D01*
X119502229Y-81022467D01*
X120079469Y-80032894D01*
X120722826Y-79085689D01*
X121429620Y-78184529D01*
X122197170Y-77333090D01*
X123022797Y-76535049D01*
X123903821Y-75794083D01*
X124837563Y-75113868D01*
X125821343Y-74498081D01*
X126062164Y-74369834D01*
X133953667Y-74369834D01*
X133974834Y-74391000D01*
X133996000Y-74369834D01*
X133974834Y-74348667D01*
X133953667Y-74369834D01*
X126062164Y-74369834D01*
X126820500Y-73965990D01*
X127901518Y-73481852D01*
X128996860Y-73080151D01*
X130111636Y-72759491D01*
X131250955Y-72518474D01*
X132419924Y-72355701D01*
X132853000Y-72315666D01*
X132973090Y-72309162D01*
X133163679Y-72303340D01*
X133425871Y-72298195D01*
X133760774Y-72293723D01*
X134169494Y-72289921D01*
X134653136Y-72286783D01*
X135212807Y-72284306D01*
X135849613Y-72282485D01*
X136564660Y-72281317D01*
X137359054Y-72280797D01*
X138233901Y-72280922D01*
G37*
X138233901Y-72280922D02*
X139190307Y-72281686D01*
X140229379Y-72283086D01*
X141129167Y-72284678D01*
X142077087Y-72286526D01*
X142944266Y-72288269D01*
X143734630Y-72289958D01*
X144452106Y-72291642D01*
X145100620Y-72293371D01*
X145684096Y-72295197D01*
X146206462Y-72297169D01*
X146671643Y-72299336D01*
X147083565Y-72301750D01*
X147446154Y-72304461D01*
X147763336Y-72307518D01*
X148039037Y-72310971D01*
X148277183Y-72314872D01*
X148481699Y-72319270D01*
X148656513Y-72324215D01*
X148805550Y-72329757D01*
X148932735Y-72335947D01*
X149041995Y-72342834D01*
X149137255Y-72350470D01*
X149222442Y-72358903D01*
X149301482Y-72368185D01*
X149378300Y-72378365D01*
X149456823Y-72389494D01*
X149468834Y-72391225D01*
X150509926Y-72567437D01*
X151493581Y-72788895D01*
X152436715Y-73060343D01*
X153356241Y-73386523D01*
X154062000Y-73679360D01*
X155108527Y-74186324D01*
X156115276Y-74765719D01*
X157078215Y-75413730D01*
X157993315Y-76126542D01*
X158856544Y-76900338D01*
X159663871Y-77731303D01*
X160411266Y-78615620D01*
X161094698Y-79549474D01*
X161710136Y-80529048D01*
X162144924Y-81331379D01*
X162604364Y-82307588D01*
X162991501Y-83279024D01*
X163311007Y-84261232D01*
X163567556Y-85269753D01*
X163765820Y-86320130D01*
X163870168Y-87069834D01*
X163879602Y-87151953D01*
X163888233Y-87237781D01*
X163896096Y-87331217D01*
X163903227Y-87436161D01*
X163909661Y-87556514D01*
X163915434Y-87696177D01*
X163920582Y-87859048D01*
X163925138Y-88049029D01*
X163929141Y-88270019D01*
X163932623Y-88525919D01*
X163935622Y-88820629D01*
X163938173Y-89158049D01*
X163940311Y-89542080D01*
X163942071Y-89976622D01*
X163943490Y-90465574D01*
X163944603Y-91012838D01*
X163945444Y-91622313D01*
X163946050Y-92297900D01*
X163946457Y-93043498D01*
X163946699Y-93863009D01*
X163946812Y-94760332D01*
X163946834Y-95494167D01*
X163946872Y-96469258D01*
X163946913Y-97363746D01*
X163946848Y-98181695D01*
X163946567Y-98927168D01*
X163945961Y-99604228D01*
X163944920Y-100216940D01*
X163943334Y-100769366D01*
X163941094Y-101265571D01*
X163938090Y-101709618D01*
X163934213Y-102105571D01*
X163929353Y-102457492D01*
X163923400Y-102769447D01*
X163916246Y-103045497D01*
X163907779Y-103289708D01*
X163897892Y-103506141D01*
X163886474Y-103698862D01*
X163873415Y-103871933D01*
X163858606Y-104029418D01*
X163841938Y-104175381D01*
X163823300Y-104313886D01*
X163802584Y-104448995D01*
X163779680Y-104584772D01*
X163754478Y-104725281D01*
X163726868Y-104874586D01*
X163696742Y-105036750D01*
X163688272Y-105082667D01*
X163432523Y-106242536D01*
X163098582Y-107371960D01*
X162688315Y-108468046D01*
X162203588Y-109527903D01*
X161646266Y-110548640D01*
X161018214Y-111527363D01*
X160321299Y-112461182D01*
X159557387Y-113347206D01*
X158728342Y-114182541D01*
X157836030Y-114964297D01*
X156882318Y-115689583D01*
X156813667Y-115737911D01*
X155872420Y-116347145D01*
X154879360Y-116894647D01*
X153844824Y-117376179D01*
X152779148Y-117787505D01*
X151692671Y-118124387D01*
X150595729Y-118382588D01*
X150171829Y-118460286D01*
X150009370Y-118487828D01*
X149860193Y-118513030D01*
X149720111Y-118535999D01*
X149584935Y-118556842D01*
X149450476Y-118575667D01*
X149312545Y-118592581D01*
X149166954Y-118607690D01*
X149009514Y-118621101D01*
X148836037Y-118632923D01*
X148642333Y-118643261D01*
X148424215Y-118652224D01*
X148177493Y-118659917D01*
X147897978Y-118666449D01*
X147581483Y-118671927D01*
X147223818Y-118676456D01*
X146820794Y-118680146D01*
X146368224Y-118683102D01*
X145861918Y-118685432D01*
X145297687Y-118687243D01*
X144671344Y-118688641D01*
X143978698Y-118689736D01*
X143215563Y-118690632D01*
X142377748Y-118691438D01*
X141461066Y-118692260D01*
X141086834Y-118692603D01*
X140294651Y-118693264D01*
X139522771Y-118693760D01*
X138775679Y-118694095D01*
X138057860Y-118694270D01*
X137373798Y-118694291D01*
X136727979Y-118694162D01*
X136124888Y-118693884D01*
X135569010Y-118693464D01*
X135064829Y-118692903D01*
X134616831Y-118692205D01*
X134229501Y-118691375D01*
X133907324Y-118690416D01*
X133654785Y-118689332D01*
X133476368Y-118688126D01*
X133376559Y-118686801D01*
X133361000Y-118686309D01*
X132221787Y-118590590D01*
X131085018Y-118414551D01*
X129959205Y-118160780D01*
X128852859Y-117831862D01*
X127774492Y-117430385D01*
X126732615Y-116958933D01*
X126214744Y-116679009D01*
X147373126Y-116679009D01*
X147410827Y-116677638D01*
X147498807Y-116660201D01*
X147645908Y-116624804D01*
X147860974Y-116569551D01*
X148007380Y-116531082D01*
X149197921Y-116173268D01*
X150366057Y-115735465D01*
X151506186Y-115220664D01*
X152612708Y-114631858D01*
X153680021Y-113972040D01*
X154702524Y-113244202D01*
X155674616Y-112451337D01*
X155723160Y-112408843D01*
X156629524Y-111562422D01*
X157507865Y-110642081D01*
X158352905Y-109655453D01*
X159159371Y-108610171D01*
X159921988Y-107513868D01*
X160635479Y-106374177D01*
X161294571Y-105198731D01*
X161893989Y-103995163D01*
X162428456Y-102771106D01*
X162490877Y-102615928D01*
X162578965Y-102388414D01*
X162674804Y-102130110D01*
X162772508Y-101858035D01*
X162866188Y-101589206D01*
X162949955Y-101340638D01*
X163017923Y-101129350D01*
X163064202Y-100972359D01*
X163076506Y-100923417D01*
X163112334Y-100764667D01*
X162064613Y-100764667D01*
X162038114Y-100881084D01*
X161896781Y-101449178D01*
X161732754Y-102004817D01*
X161540302Y-102563380D01*
X161313696Y-103140249D01*
X161047206Y-103750804D01*
X160735101Y-104410424D01*
X160685664Y-104511167D01*
X160012190Y-105785321D01*
X159263398Y-107026428D01*
X158436685Y-108238700D01*
X158121512Y-108666188D01*
X157270505Y-109728308D01*
X156349014Y-110746427D01*
X155360779Y-111717279D01*
X154309542Y-112637597D01*
X153199041Y-113504116D01*
X152033016Y-114313570D01*
X150815209Y-115062692D01*
X150761348Y-115093726D01*
X150469481Y-115259501D01*
X150205438Y-115404451D01*
X149953438Y-115536183D01*
X149697698Y-115662306D01*
X149422436Y-115790429D01*
X149111871Y-115928161D01*
X148750219Y-116083109D01*
X148429632Y-116217841D01*
X148153232Y-116333653D01*
X147903333Y-116438945D01*
X147690334Y-116529288D01*
X147524637Y-116600254D01*
X147416640Y-116647411D01*
X147376861Y-116666209D01*
X147373126Y-116679009D01*
X126214744Y-116679009D01*
X125735740Y-116420094D01*
X125562753Y-116316762D01*
X124575852Y-115669391D01*
X123640159Y-114956389D01*
X122758828Y-114181458D01*
X121935010Y-113348303D01*
X121171855Y-112460627D01*
X120472517Y-111522135D01*
X119840146Y-110536531D01*
X119277893Y-109507518D01*
X118788911Y-108438801D01*
X118723502Y-108278834D01*
X118399621Y-107407003D01*
X118128299Y-106525782D01*
X117904503Y-105615870D01*
X117723200Y-104657966D01*
X117645419Y-104144327D01*
X117634179Y-104062696D01*
X117623897Y-103983127D01*
X117614521Y-103901652D01*
X117606002Y-103814304D01*
X117598286Y-103717119D01*
X117591324Y-103606129D01*
X117585063Y-103477368D01*
X117579452Y-103326870D01*
X117574441Y-103150668D01*
X117569977Y-102944797D01*
X117566009Y-102705289D01*
X117562487Y-102428180D01*
X117559358Y-102109501D01*
X117556572Y-101745288D01*
X117554076Y-101331573D01*
X117551821Y-100864391D01*
X117549754Y-100339774D01*
X117547824Y-99753758D01*
X117545981Y-99102375D01*
X117544171Y-98381660D01*
X117542345Y-97587645D01*
X117540451Y-96716366D01*
X117538717Y-95896334D01*
X117538141Y-95616303D01*
X120469174Y-95616303D01*
X120472083Y-96051077D01*
X120479783Y-96459668D01*
X120492360Y-96826408D01*
X120509899Y-97135629D01*
X120525719Y-97314500D01*
X120711748Y-98670203D01*
X120970880Y-99983709D01*
X121303834Y-101256744D01*
X121711333Y-102491038D01*
X122194097Y-103688318D01*
X122752848Y-104850311D01*
X123388307Y-105978747D01*
X124101195Y-107075353D01*
X124892234Y-108141858D01*
X125207885Y-108532834D01*
X125424315Y-108784128D01*
X125691543Y-109077132D01*
X125996112Y-109398414D01*
X126324568Y-109734548D01*
X126663455Y-110072102D01*
X126999318Y-110397650D01*
X127318703Y-110697761D01*
X127608154Y-110959006D01*
X127820668Y-111140531D01*
X128872263Y-111953227D01*
X129964987Y-112693580D01*
X131095619Y-113360306D01*
X132260937Y-113952123D01*
X133457718Y-114467749D01*
X134682741Y-114905900D01*
X135932784Y-115265295D01*
X137204625Y-115544650D01*
X138495044Y-115742683D01*
X139647500Y-115848925D01*
X139863600Y-115858639D01*
X140144452Y-115865247D01*
X140471271Y-115868852D01*
X140825277Y-115869561D01*
X141187686Y-115867476D01*
X141539717Y-115862704D01*
X141862586Y-115855348D01*
X142137511Y-115845514D01*
X142337788Y-115833925D01*
X143672850Y-115689983D01*
X144982063Y-115465620D01*
X146263854Y-115161475D01*
X147516652Y-114778188D01*
X148738882Y-114316399D01*
X149928972Y-113776748D01*
X151085348Y-113159873D01*
X152206439Y-112466416D01*
X153290671Y-111697015D01*
X154105977Y-111047750D01*
X154389393Y-110801891D01*
X154709776Y-110509012D01*
X155050493Y-110185472D01*
X155394909Y-109847626D01*
X155726392Y-109511831D01*
X156028308Y-109194444D01*
X156284023Y-108911822D01*
X156319040Y-108871500D01*
X156684194Y-108448167D01*
X155605930Y-108436869D01*
X155276394Y-108433176D01*
X155021853Y-108429286D01*
X154832641Y-108424347D01*
X154699089Y-108417503D01*
X154611528Y-108407900D01*
X154560291Y-108394685D01*
X154535711Y-108377004D01*
X154528117Y-108354001D01*
X154527667Y-108341619D01*
X154519896Y-108298441D01*
X154484830Y-108273224D01*
X154404834Y-108261239D01*
X154262277Y-108257761D01*
X154214513Y-108257667D01*
X153901358Y-108257667D01*
X153856552Y-107993084D01*
X153725318Y-107091346D01*
X153648073Y-106251942D01*
X153627295Y-105548334D01*
X154184159Y-105548334D01*
X154188503Y-105831309D01*
X154200435Y-106130574D01*
X154218727Y-106434367D01*
X154242147Y-106730925D01*
X154269466Y-107008486D01*
X154299454Y-107255290D01*
X154330881Y-107459573D01*
X154362518Y-107609575D01*
X154393134Y-107693534D01*
X154409910Y-107707334D01*
X154428715Y-107671104D01*
X154425669Y-107582593D01*
X154423667Y-107569750D01*
X154373041Y-107192612D01*
X154336945Y-106762798D01*
X154315741Y-106303561D01*
X154309788Y-105838149D01*
X154319447Y-105389814D01*
X154345078Y-104981807D01*
X154379028Y-104688502D01*
X154466082Y-104200296D01*
X154578330Y-103756026D01*
X154722349Y-103343428D01*
X154904717Y-102950241D01*
X155132010Y-102564200D01*
X155410805Y-102173043D01*
X155747680Y-101764505D01*
X156149212Y-101326324D01*
X156224042Y-101248348D01*
X156611430Y-100840908D01*
X156939960Y-100480622D01*
X157214997Y-100159469D01*
X157441901Y-99869428D01*
X157626035Y-99602477D01*
X157772760Y-99350593D01*
X157887439Y-99105755D01*
X157975433Y-98859943D01*
X158042105Y-98605132D01*
X158064861Y-98494430D01*
X158108120Y-98229645D01*
X158124694Y-98030040D01*
X158114568Y-97900349D01*
X158077727Y-97845302D01*
X158067029Y-97843667D01*
X158000562Y-97882206D01*
X157962771Y-97988394D01*
X157956667Y-98073191D01*
X157940140Y-98215307D01*
X157895522Y-98409733D01*
X157830261Y-98631932D01*
X157751802Y-98857365D01*
X157667592Y-99061494D01*
X157637718Y-99124207D01*
X157509580Y-99354691D01*
X157343564Y-99605634D01*
X157134404Y-99883652D01*
X156876833Y-100195361D01*
X156565584Y-100547377D01*
X156195390Y-100946313D01*
X156143273Y-101001321D01*
X155923149Y-101235964D01*
X155708175Y-101470232D01*
X155509951Y-101691104D01*
X155340072Y-101885554D01*
X155210137Y-102040559D01*
X155153426Y-102112876D01*
X154850899Y-102572249D01*
X154607463Y-103064547D01*
X154421097Y-103596928D01*
X154289781Y-104176552D01*
X154211495Y-104810580D01*
X154184218Y-105506171D01*
X154184159Y-105548334D01*
X153627295Y-105548334D01*
X153625035Y-105471807D01*
X153656417Y-104747876D01*
X153742437Y-104077084D01*
X153883311Y-103456369D01*
X154079255Y-102882664D01*
X154242230Y-102521500D01*
X154374808Y-102272139D01*
X154519528Y-102035297D01*
X154686163Y-101798150D01*
X154884488Y-101547873D01*
X155124278Y-101271641D01*
X155415308Y-100956630D01*
X155514635Y-100852056D01*
X155893011Y-100451722D01*
X156214431Y-100101503D01*
X156483929Y-99793844D01*
X156706540Y-99521194D01*
X156887298Y-99275997D01*
X157031237Y-99050699D01*
X157143390Y-98837748D01*
X157228794Y-98629589D01*
X157292481Y-98418669D01*
X157339485Y-98197433D01*
X157357344Y-98087084D01*
X157393516Y-97843667D01*
X155304425Y-97843667D01*
X154830463Y-97843596D01*
X154434212Y-97843196D01*
X154108715Y-97842184D01*
X153847015Y-97840278D01*
X153642155Y-97837198D01*
X153487180Y-97832660D01*
X153375132Y-97826382D01*
X153299056Y-97818084D01*
X153251994Y-97807483D01*
X153226991Y-97794296D01*
X153217090Y-97778242D01*
X153215334Y-97759040D01*
X153215334Y-97759000D01*
X153208263Y-97716816D01*
X153175698Y-97691533D01*
X153100607Y-97678896D01*
X152965959Y-97674645D01*
X152876667Y-97674334D01*
X152538000Y-97674334D01*
X152538000Y-96467834D01*
X153088334Y-96467834D01*
X153089433Y-96720998D01*
X153093480Y-96901114D01*
X153101597Y-97019780D01*
X153114907Y-97088593D01*
X153134531Y-97119152D01*
X153151834Y-97124000D01*
X153176333Y-97112638D01*
X153193764Y-97070818D01*
X153205248Y-96986942D01*
X153211907Y-96849412D01*
X153214864Y-96646631D01*
X153215334Y-96467834D01*
X153214234Y-96214669D01*
X153210187Y-96034553D01*
X153202070Y-95915887D01*
X153188760Y-95847074D01*
X153169136Y-95816515D01*
X153151834Y-95811667D01*
X153127334Y-95823029D01*
X153109903Y-95864849D01*
X153098419Y-95948725D01*
X153091760Y-96086255D01*
X153088803Y-96289036D01*
X153088334Y-96467834D01*
X152538000Y-96467834D01*
X152538000Y-95261334D01*
X160454334Y-95261334D01*
X160454334Y-95811667D01*
X160720531Y-95811667D01*
X160694779Y-96859417D01*
X160675871Y-97418987D01*
X160646432Y-97910695D01*
X160603221Y-98351033D01*
X160542997Y-98756492D01*
X160462518Y-99143564D01*
X160358542Y-99528737D01*
X160227830Y-99928505D01*
X160067138Y-100359358D01*
X159948796Y-100654803D01*
X159836936Y-100919102D01*
X159736591Y-101126521D01*
X159632814Y-101298436D01*
X159510660Y-101456224D01*
X159355183Y-101621259D01*
X159151437Y-101814919D01*
X159112750Y-101850550D01*
X158797514Y-102143063D01*
X158539617Y-102389661D01*
X158331371Y-102598646D01*
X158165083Y-102778319D01*
X158033065Y-102936984D01*
X157927625Y-103082942D01*
X157842603Y-103221773D01*
X157627063Y-103681646D01*
X157461963Y-104199623D01*
X157348944Y-104764617D01*
X157289643Y-105365547D01*
X157285701Y-105991326D01*
X157338641Y-106629976D01*
X157374915Y-106921417D01*
X157404291Y-107132886D01*
X157434686Y-107266028D01*
X157474017Y-107322490D01*
X157530202Y-107303915D01*
X157611156Y-107211950D01*
X157724798Y-107048240D01*
X157879044Y-106814431D01*
X157921028Y-106751015D01*
X158576696Y-105704591D01*
X159154926Y-104654246D01*
X159662308Y-103585682D01*
X160105432Y-102484597D01*
X160490887Y-101336693D01*
X160622592Y-100888836D01*
X160934249Y-99635065D01*
X161163622Y-98366796D01*
X161310537Y-97088601D01*
X161374817Y-95805052D01*
X161356286Y-94520723D01*
X161254768Y-93240185D01*
X161070086Y-91968011D01*
X160983590Y-91514834D01*
X160917438Y-91191701D01*
X160864671Y-90942674D01*
X160822536Y-90758743D01*
X160788277Y-90630897D01*
X160759143Y-90550127D01*
X160732379Y-90507424D01*
X160705232Y-90493778D01*
X160674949Y-90500180D01*
X160673654Y-90500718D01*
X160570439Y-90544152D01*
X160479092Y-90581104D01*
X160392055Y-90612135D01*
X160301769Y-90637805D01*
X160200677Y-90658676D01*
X160081222Y-90675310D01*
X159935845Y-90688266D01*
X159756989Y-90698106D01*
X159537097Y-90705392D01*
X159268609Y-90710684D01*
X158943970Y-90714544D01*
X158555620Y-90717532D01*
X158096003Y-90720209D01*
X157687362Y-90722420D01*
X155280224Y-90735596D01*
X155310390Y-91019381D01*
X155394026Y-91472362D01*
X155541827Y-91886151D01*
X155749050Y-92253388D01*
X156010955Y-92566710D01*
X156322801Y-92818756D01*
X156552063Y-92947202D01*
X156680778Y-93005647D01*
X156788021Y-93044052D01*
X156897764Y-93066577D01*
X157033976Y-93077379D01*
X157220627Y-93080616D01*
X157321667Y-93080720D01*
X157558706Y-93077307D01*
X157736156Y-93065434D01*
X157878930Y-93041893D01*
X158011943Y-93003473D01*
X158062500Y-92985282D01*
X158314750Y-92869719D01*
X158583612Y-92703532D01*
X158877604Y-92480602D01*
X159205246Y-92194809D01*
X159345168Y-92063866D01*
X159516344Y-91905201D01*
X159675034Y-91765784D01*
X159807288Y-91657320D01*
X159899158Y-91591512D01*
X159922785Y-91579239D01*
X160120420Y-91538546D01*
X160349004Y-91543390D01*
X160569902Y-91591074D01*
X160667614Y-91631250D01*
X160853556Y-91767074D01*
X160975849Y-91948938D01*
X161035731Y-92168499D01*
X161034445Y-92417413D01*
X160973230Y-92687338D01*
X160853328Y-92969929D01*
X160675979Y-93256845D01*
X160442425Y-93539741D01*
X160373171Y-93611084D01*
X159986488Y-93948388D01*
X159565955Y-94220058D01*
X159104791Y-94428738D01*
X158596216Y-94577073D01*
X158033448Y-94667709D01*
X157584184Y-94698971D01*
X156976268Y-94698719D01*
X156428283Y-94649712D01*
X155929197Y-94549378D01*
X155467978Y-94395143D01*
X155033593Y-94184433D01*
X154817819Y-94053740D01*
X154395992Y-93731475D01*
X154019488Y-93342929D01*
X153694776Y-92897047D01*
X153428325Y-92402772D01*
X153226606Y-91869050D01*
X153218802Y-91843063D01*
X153104121Y-91353205D01*
X153031558Y-90812870D01*
X153001438Y-90245214D01*
X153014081Y-89673389D01*
X153048225Y-89334667D01*
X155288054Y-89334667D01*
X158982422Y-89334667D01*
X158952170Y-89091250D01*
X158864929Y-88652549D01*
X158720343Y-88259934D01*
X158522744Y-87919688D01*
X158276465Y-87638095D01*
X157985835Y-87421439D01*
X157714299Y-87295525D01*
X157443742Y-87233611D01*
X157136570Y-87217035D01*
X156824711Y-87244153D01*
X156540091Y-87313322D01*
X156420075Y-87362149D01*
X156132703Y-87544169D01*
X155875553Y-87794200D01*
X155663479Y-88096992D01*
X155613930Y-88189689D01*
X155552696Y-88319992D01*
X155500817Y-88452244D01*
X155453212Y-88603856D01*
X155404801Y-88792242D01*
X155350503Y-89034815D01*
X155307664Y-89239417D01*
X155288054Y-89334667D01*
X153048225Y-89334667D01*
X153069810Y-89120551D01*
X153168947Y-88609854D01*
X153173580Y-88591566D01*
X153362645Y-88003103D01*
X153612712Y-87472562D01*
X153921351Y-87001791D01*
X154286130Y-86592634D01*
X154704618Y-86246938D01*
X155174384Y-85966548D01*
X155692997Y-85753311D01*
X156258026Y-85609072D01*
X156867040Y-85535678D01*
X157210795Y-85526144D01*
X157683337Y-85544336D01*
X158102903Y-85598567D01*
X158494833Y-85692701D01*
X158665750Y-85747998D01*
X158810584Y-85795465D01*
X158918595Y-85825234D01*
X158970630Y-85832185D01*
X158972667Y-85830037D01*
X158951522Y-85777353D01*
X158892791Y-85664823D01*
X158803528Y-85504543D01*
X158690786Y-85308608D01*
X158561621Y-85089114D01*
X158423086Y-84858156D01*
X158282237Y-84627831D01*
X158146126Y-84410234D01*
X158127973Y-84381667D01*
X157415195Y-83339510D01*
X156630808Y-82336707D01*
X155781285Y-81379870D01*
X154873095Y-80475609D01*
X153912711Y-79630537D01*
X152906602Y-78851266D01*
X152305167Y-78432383D01*
X151834698Y-78123548D01*
X151404078Y-77854420D01*
X150988130Y-77610486D01*
X150561675Y-77377230D01*
X150099538Y-77140139D01*
X149849834Y-77016896D01*
X148656577Y-76480630D01*
X147436886Y-76023433D01*
X146194792Y-75645894D01*
X144934328Y-75348606D01*
X143659527Y-75132157D01*
X142374420Y-74997138D01*
X141083041Y-74944140D01*
X139789423Y-74973754D01*
X138497596Y-75086569D01*
X137573167Y-75219260D01*
X136281052Y-75477669D01*
X135018348Y-75814543D01*
X133787738Y-76228006D01*
X132591902Y-76716186D01*
X131433523Y-77277209D01*
X130315283Y-77909203D01*
X129239863Y-78610293D01*
X128209945Y-79378607D01*
X127228210Y-80212270D01*
X126297341Y-81109411D01*
X125420020Y-82068155D01*
X124598928Y-83086629D01*
X123836746Y-84162960D01*
X123136157Y-85295275D01*
X123127735Y-85309890D01*
X122873601Y-85751281D01*
X123001017Y-85858494D01*
X123110492Y-85982937D01*
X123212260Y-86152665D01*
X123289928Y-86334571D01*
X123327109Y-86495544D01*
X123328235Y-86519500D01*
X123339046Y-86648034D01*
X123373624Y-86703296D01*
X123439342Y-86686383D01*
X123543570Y-86598387D01*
X123584217Y-86557500D01*
X123722224Y-86427515D01*
X123890688Y-86285591D01*
X124026500Y-86182015D01*
X124387142Y-85950970D01*
X124741675Y-85783494D01*
X125111268Y-85673008D01*
X125517091Y-85612933D01*
X125910334Y-85596574D01*
X126271482Y-85605764D01*
X126575870Y-85639824D01*
X126849076Y-85703919D01*
X127116680Y-85803213D01*
X127258638Y-85868775D01*
X127454906Y-85985987D01*
X127671265Y-86149665D01*
X127883559Y-86338402D01*
X128067633Y-86530790D01*
X128195198Y-86698770D01*
X128299896Y-86865482D01*
X128505209Y-86640837D01*
X128863478Y-86305479D01*
X129273709Y-86020173D01*
X129716072Y-85797033D01*
X130101334Y-85665611D01*
X130347966Y-85620654D01*
X130648669Y-85597140D01*
X130975702Y-85594714D01*
X131301324Y-85613019D01*
X131597793Y-85651702D01*
X131758858Y-85686838D01*
X132214058Y-85843875D01*
X132606028Y-86056434D01*
X132936070Y-86325955D01*
X133205490Y-86653880D01*
X133415592Y-87041648D01*
X133567679Y-87490700D01*
X133623951Y-87747167D01*
X133635521Y-87832467D01*
X133645501Y-87957095D01*
X133653978Y-88126116D01*
X133661039Y-88344597D01*
X133666770Y-88617606D01*
X133671257Y-88950209D01*
X133674587Y-89347472D01*
X133676846Y-89814462D01*
X133678122Y-90356247D01*
X133678500Y-90943334D01*
X133678500Y-93843167D01*
X133581980Y-94052503D01*
X133450106Y-94297431D01*
X133305194Y-94476365D01*
X133130302Y-94607886D01*
X133026862Y-94661425D01*
X132794220Y-94736423D01*
X132532446Y-94769402D01*
X132274376Y-94759075D01*
X132052845Y-94704156D01*
X132042759Y-94699979D01*
X131825863Y-94569606D01*
X131628352Y-94380911D01*
X131476293Y-94159975D01*
X131450515Y-94107396D01*
X131350241Y-93885500D01*
X131324396Y-91260834D01*
X131318492Y-90684259D01*
X131312602Y-90185723D01*
X131306206Y-89758598D01*
X131298784Y-89396259D01*
X131289818Y-89092077D01*
X131278789Y-88839426D01*
X131265177Y-88631680D01*
X131248464Y-88462211D01*
X131228129Y-88324393D01*
X131203654Y-88211600D01*
X131174520Y-88117204D01*
X131140207Y-88034579D01*
X131100196Y-87957097D01*
X131060179Y-87888433D01*
X130900725Y-87684221D01*
X130703604Y-87547182D01*
X130458668Y-87472126D01*
X130209073Y-87453185D01*
X130015253Y-87461192D01*
X129860631Y-87491824D01*
X129700694Y-87555000D01*
X129655865Y-87576453D01*
X129387863Y-87744171D01*
X129147577Y-87963830D01*
X128957708Y-88212787D01*
X128888427Y-88341932D01*
X128841362Y-88449551D01*
X128800947Y-88556302D01*
X128766569Y-88669563D01*
X128737615Y-88796712D01*
X128713474Y-88945125D01*
X128693532Y-89122179D01*
X128677177Y-89335252D01*
X128663798Y-89591722D01*
X128652780Y-89898964D01*
X128643513Y-90264357D01*
X128635382Y-90695278D01*
X128627777Y-91199105D01*
X128623256Y-91536000D01*
X128616352Y-92060288D01*
X128609855Y-92507071D01*
X128603000Y-92883503D01*
X128595020Y-93196739D01*
X128585149Y-93453932D01*
X128572621Y-93662237D01*
X128556669Y-93828806D01*
X128536526Y-93960794D01*
X128511427Y-94065356D01*
X128480606Y-94149644D01*
X128443294Y-94220814D01*
X128398728Y-94286018D01*
X128346139Y-94352411D01*
X128317869Y-94386745D01*
X128103683Y-94582549D01*
X127841573Y-94708700D01*
X127532096Y-94764959D01*
X127433303Y-94768167D01*
X127248610Y-94763255D01*
X127111427Y-94741964D01*
X126984990Y-94696046D01*
X126882969Y-94644715D01*
X126657677Y-94479323D01*
X126470162Y-94252716D01*
X126337231Y-93985703D01*
X126327233Y-93956506D01*
X126315398Y-93891215D01*
X126304546Y-93768411D01*
X126294583Y-93584631D01*
X126285413Y-93336411D01*
X126276942Y-93020289D01*
X126269074Y-92632799D01*
X126261715Y-92170480D01*
X126254768Y-91629867D01*
X126249183Y-91112667D01*
X126243475Y-90562303D01*
X126238083Y-90089997D01*
X126232778Y-89689145D01*
X126227329Y-89353139D01*
X126221504Y-89075373D01*
X126215075Y-88849242D01*
X126207809Y-88668139D01*
X126199478Y-88525459D01*
X126189851Y-88414594D01*
X126178697Y-88328940D01*
X126165785Y-88261890D01*
X126150886Y-88206837D01*
X126147459Y-88196108D01*
X126027804Y-87910259D01*
X125876200Y-87699507D01*
X125684240Y-87557622D01*
X125443520Y-87478374D01*
X125148334Y-87455507D01*
X124791205Y-87484563D01*
X124492186Y-87567066D01*
X124241228Y-87706239D01*
X124158624Y-87772668D01*
X124025209Y-87904272D01*
X123919280Y-88046769D01*
X123831059Y-88218893D01*
X123750765Y-88439379D01*
X123677038Y-88695236D01*
X123653469Y-88784674D01*
X123633487Y-88867331D01*
X123616694Y-88951002D01*
X123602692Y-89043483D01*
X123591085Y-89152570D01*
X123581474Y-89286059D01*
X123573462Y-89451745D01*
X123566652Y-89657426D01*
X123560645Y-89910895D01*
X123555045Y-90219949D01*
X123549453Y-90592385D01*
X123543472Y-91035997D01*
X123538635Y-91409000D01*
X123530707Y-91972231D01*
X123522449Y-92454751D01*
X123513727Y-92860514D01*
X123504412Y-93193475D01*
X123494369Y-93457589D01*
X123483468Y-93656811D01*
X123471576Y-93795096D01*
X123458562Y-93876398D01*
X123456024Y-93885500D01*
X123322001Y-94203980D01*
X123140471Y-94455041D01*
X122913264Y-94636435D01*
X122798834Y-94693794D01*
X122623428Y-94741273D01*
X122404413Y-94763178D01*
X122176464Y-94759270D01*
X121974252Y-94729314D01*
X121882759Y-94700053D01*
X121665717Y-94569505D01*
X121468123Y-94380648D01*
X121316058Y-94159582D01*
X121290478Y-94107396D01*
X121266594Y-94053045D01*
X121246742Y-93999804D01*
X121230448Y-93939474D01*
X121217240Y-93863854D01*
X121206644Y-93764743D01*
X121198187Y-93633940D01*
X121191397Y-93463244D01*
X121185800Y-93244454D01*
X121180922Y-92969370D01*
X121176292Y-92629790D01*
X121171435Y-92217514D01*
X121169000Y-92001667D01*
X121164061Y-91616073D01*
X121158341Y-91261629D01*
X121152055Y-90946206D01*
X121145416Y-90677675D01*
X121138637Y-90463907D01*
X121131933Y-90312772D01*
X121125517Y-90232140D01*
X121120740Y-90223667D01*
X120871658Y-91311471D01*
X120669740Y-92438081D01*
X120547524Y-93335167D01*
X120523490Y-93598030D01*
X120503731Y-93928714D01*
X120488335Y-94311550D01*
X120477386Y-94730872D01*
X120470970Y-95171012D01*
X120469174Y-95616303D01*
X117538141Y-95616303D01*
X117536701Y-94916605D01*
X117534999Y-94017456D01*
X117533680Y-93194799D01*
X117532816Y-92444548D01*
X117532476Y-91762616D01*
X117532732Y-91144916D01*
X117533655Y-90587360D01*
X117534975Y-90188291D01*
X118205667Y-90188291D01*
X118211150Y-90221975D01*
X118236888Y-90244102D01*
X118296810Y-90256534D01*
X118404847Y-90261131D01*
X118574929Y-90259757D01*
X118717707Y-90256720D01*
X119229747Y-90244834D01*
X119348914Y-89779167D01*
X119574595Y-89008227D01*
X119865597Y-88198005D01*
X120217442Y-87357137D01*
X120625649Y-86494260D01*
X121085738Y-85618011D01*
X121593231Y-84737026D01*
X122143646Y-83859940D01*
X122732506Y-82995392D01*
X123197695Y-82359062D01*
X124057170Y-81288752D01*
X124986042Y-80266144D01*
X125982948Y-79292447D01*
X127046526Y-78368872D01*
X128175412Y-77496630D01*
X129368244Y-76676931D01*
X130136502Y-76197328D01*
X130720349Y-75860672D01*
X131324638Y-75542149D01*
X131968266Y-75232390D01*
X132670133Y-74922029D01*
X132928315Y-74813490D01*
X133189529Y-74703937D01*
X133421458Y-74604670D01*
X133613689Y-74520312D01*
X133755810Y-74455483D01*
X133837410Y-74414806D01*
X133852880Y-74403103D01*
X133803468Y-74404236D01*
X133685892Y-74427648D01*
X133512642Y-74469845D01*
X133296203Y-74527334D01*
X133049064Y-74596624D01*
X132783710Y-74674222D01*
X132512630Y-74756634D01*
X132248309Y-74840370D01*
X132027500Y-74913643D01*
X130858471Y-75355894D01*
X129712374Y-75877650D01*
X128597013Y-76475111D01*
X127730667Y-77005963D01*
X126773814Y-77673808D01*
X125839247Y-78419493D01*
X124930719Y-79238241D01*
X124051984Y-80125279D01*
X123206796Y-81075831D01*
X122398908Y-82085123D01*
X121632074Y-83148379D01*
X120910048Y-84260826D01*
X120236582Y-85417688D01*
X119615431Y-86614191D01*
X119050349Y-87845560D01*
X118868451Y-88279152D01*
X118772002Y-88521065D01*
X118670597Y-88786495D01*
X118568814Y-89062257D01*
X118471229Y-89335166D01*
X118382420Y-89592039D01*
X118306963Y-89819690D01*
X118249436Y-90004936D01*
X118214415Y-90134593D01*
X118205667Y-90188291D01*
X117534975Y-90188291D01*
X117535314Y-90085863D01*
X117537781Y-89636337D01*
X117541126Y-89234696D01*
X117545420Y-88876851D01*
X117550734Y-88558718D01*
X117557138Y-88276208D01*
X117564703Y-88025235D01*
X117573499Y-87801712D01*
X117583597Y-87601552D01*
X117595069Y-87420668D01*
X117607984Y-87254973D01*
X117622413Y-87100381D01*
X117638427Y-86952804D01*
X117656096Y-86808155D01*
X117675492Y-86662349D01*
X117696684Y-86511297D01*
X117701564Y-86477167D01*
X117908026Y-85330904D01*
X118194003Y-84208626D01*
X118556816Y-83114009D01*
X118993785Y-82050731D01*
X119502229Y-81022467D01*
X120079469Y-80032894D01*
X120722826Y-79085689D01*
X121429620Y-78184529D01*
X122197170Y-77333090D01*
X123022797Y-76535049D01*
X123903821Y-75794083D01*
X124837563Y-75113868D01*
X125821343Y-74498081D01*
X126062164Y-74369834D01*
X133953667Y-74369834D01*
X133974834Y-74391000D01*
X133996000Y-74369834D01*
X133974834Y-74348667D01*
X133953667Y-74369834D01*
X126062164Y-74369834D01*
X126820500Y-73965990D01*
X127901518Y-73481852D01*
X128996860Y-73080151D01*
X130111636Y-72759491D01*
X131250955Y-72518474D01*
X132419924Y-72355701D01*
X132853000Y-72315666D01*
X132973090Y-72309162D01*
X133163679Y-72303340D01*
X133425871Y-72298195D01*
X133760774Y-72293723D01*
X134169494Y-72289921D01*
X134653136Y-72286783D01*
X135212807Y-72284306D01*
X135849613Y-72282485D01*
X136564660Y-72281317D01*
X137359054Y-72280797D01*
X138233901Y-72280922D01*
G36*
X143944334Y-95938667D02*
G01*
X144210990Y-95938667D01*
X144185099Y-96986417D01*
X144164151Y-97566097D01*
X144129992Y-98077912D01*
X144079768Y-98538030D01*
X144010624Y-98962618D01*
X143919703Y-99367842D01*
X143804151Y-99769869D01*
X143661111Y-100184867D01*
X143584550Y-100386488D01*
X143452430Y-100721164D01*
X143339290Y-100990693D01*
X143235391Y-101209577D01*
X143130997Y-101392318D01*
X143016369Y-101553416D01*
X142881770Y-101707372D01*
X142717461Y-101868688D01*
X142513704Y-102051865D01*
X142399167Y-102151694D01*
X142084557Y-102433243D01*
X141830572Y-102681641D01*
X141626432Y-102909230D01*
X141461355Y-103128353D01*
X141324560Y-103351351D01*
X141282909Y-103429600D01*
X141094862Y-103844496D01*
X140954387Y-104271958D01*
X140857100Y-104730507D01*
X140798616Y-105238665D01*
X140781312Y-105548334D01*
X140775117Y-105881188D01*
X140783599Y-106209785D01*
X140808450Y-106547682D01*
X140851361Y-106908435D01*
X140914023Y-107305600D01*
X140998127Y-107752735D01*
X141105363Y-108263395D01*
X141139056Y-108416417D01*
X141160204Y-108511667D01*
X138017667Y-108511667D01*
X138017667Y-108405834D01*
X138013632Y-108351713D01*
X137989559Y-108320136D01*
X137927490Y-108305036D01*
X137809470Y-108300344D01*
X137704513Y-108300000D01*
X137391358Y-108300000D01*
X137344496Y-108030896D01*
X137211091Y-107125923D01*
X137134755Y-106272460D01*
X137119838Y-105654939D01*
X137669260Y-105654939D01*
X137700288Y-106367290D01*
X137776924Y-107143607D01*
X137830945Y-107548584D01*
X137852883Y-107665547D01*
X137876361Y-107738060D01*
X137887152Y-107749667D01*
X137893540Y-107710544D01*
X137889820Y-107604549D01*
X137877000Y-107448744D01*
X137860262Y-107294584D01*
X137832258Y-106987502D01*
X137813664Y-106630200D01*
X137804408Y-106244089D01*
X137804422Y-105850583D01*
X137813634Y-105471095D01*
X137831973Y-105127037D01*
X137859370Y-104839824D01*
X137868555Y-104773169D01*
X138006927Y-104097633D01*
X138212858Y-103470331D01*
X138488385Y-102885867D01*
X138733998Y-102484110D01*
X138827586Y-102358431D01*
X138968687Y-102185798D01*
X139145570Y-101979743D01*
X139346504Y-101753796D01*
X139559758Y-101521491D01*
X139670218Y-101404153D01*
X140063787Y-100985051D01*
X140399533Y-100615206D01*
X140682213Y-100286843D01*
X140916579Y-99992184D01*
X141107386Y-99723455D01*
X141259388Y-99472879D01*
X141377338Y-99232680D01*
X141465992Y-98995083D01*
X141530102Y-98752311D01*
X141574423Y-98496589D01*
X141601655Y-98245008D01*
X141613937Y-98081379D01*
X141614693Y-97985559D01*
X141601268Y-97941154D01*
X141571007Y-97931771D01*
X141551371Y-97934572D01*
X141507447Y-97960513D01*
X141472435Y-98029335D01*
X141440291Y-98156653D01*
X141417832Y-98279597D01*
X141362018Y-98548800D01*
X141284774Y-98807843D01*
X141181153Y-99064188D01*
X141046209Y-99325298D01*
X140874995Y-99598635D01*
X140662564Y-99891660D01*
X140403969Y-100211835D01*
X140094263Y-100566622D01*
X139728499Y-100963484D01*
X139432284Y-101274661D01*
X139137544Y-101586713D01*
X138896197Y-101856353D01*
X138697989Y-102096998D01*
X138532666Y-102322070D01*
X138389973Y-102544987D01*
X138259655Y-102779171D01*
X138213125Y-102870156D01*
X138009730Y-103340901D01*
X137854073Y-103849536D01*
X137745726Y-104401278D01*
X137684263Y-105001340D01*
X137669260Y-105654939D01*
X137119838Y-105654939D01*
X137115433Y-105472606D01*
X137153068Y-104728460D01*
X137247605Y-104042121D01*
X137398989Y-103415690D01*
X137472441Y-103190858D01*
X137599069Y-102857316D01*
X137735909Y-102553520D01*
X137891533Y-102266792D01*
X138074512Y-101984451D01*
X138293415Y-101693820D01*
X138556814Y-101382219D01*
X138873279Y-101036970D01*
X139061582Y-100840013D01*
X139447241Y-100435311D01*
X139773812Y-100078624D01*
X140046205Y-99762537D01*
X140269330Y-99479633D01*
X140448098Y-99222497D01*
X140587420Y-98983713D01*
X140692205Y-98755866D01*
X140767365Y-98531539D01*
X140817810Y-98303317D01*
X140838911Y-98155901D01*
X140865657Y-97928334D01*
X138785495Y-97928334D01*
X138312633Y-97928262D01*
X137917466Y-97927859D01*
X137593023Y-97926840D01*
X137332333Y-97924922D01*
X137128424Y-97921821D01*
X136974324Y-97917253D01*
X136863063Y-97910935D01*
X136787669Y-97902582D01*
X136741170Y-97891912D01*
X136716596Y-97878639D01*
X136706974Y-97862481D01*
X136705334Y-97843667D01*
X136698263Y-97801482D01*
X136665698Y-97776200D01*
X136590607Y-97763562D01*
X136455959Y-97759312D01*
X136366667Y-97759000D01*
X136028000Y-97759000D01*
X136028000Y-95854000D01*
X136578334Y-95854000D01*
X136578334Y-96531334D01*
X136579385Y-96789065D01*
X136583255Y-96973584D01*
X136591014Y-97096323D01*
X136603735Y-97168717D01*
X136622491Y-97202203D01*
X136641834Y-97208667D01*
X136666686Y-97197149D01*
X136684251Y-97154749D01*
X136695705Y-97069699D01*
X136702226Y-96930231D01*
X136704989Y-96724576D01*
X136705334Y-96573667D01*
X136705334Y-95938667D01*
X140049667Y-95938667D01*
X140744108Y-95938132D01*
X141359464Y-95936535D01*
X141895036Y-95933884D01*
X142350127Y-95930188D01*
X142724043Y-95925455D01*
X143016084Y-95919695D01*
X143225556Y-95912915D01*
X143351760Y-95905126D01*
X143394000Y-95896336D01*
X143394000Y-95896334D01*
X143351783Y-95887617D01*
X143225582Y-95879884D01*
X143016076Y-95873144D01*
X142723942Y-95867403D01*
X142349859Y-95862672D01*
X141894504Y-95858958D01*
X141358555Y-95856270D01*
X140742691Y-95854615D01*
X140047588Y-95854004D01*
X139986167Y-95854000D01*
X136578334Y-95854000D01*
X136028000Y-95854000D01*
X136028000Y-95303667D01*
X143944334Y-95303667D01*
X143944334Y-95938667D01*
G37*
X143944334Y-95938667D02*
X144210990Y-95938667D01*
X144185099Y-96986417D01*
X144164151Y-97566097D01*
X144129992Y-98077912D01*
X144079768Y-98538030D01*
X144010624Y-98962618D01*
X143919703Y-99367842D01*
X143804151Y-99769869D01*
X143661111Y-100184867D01*
X143584550Y-100386488D01*
X143452430Y-100721164D01*
X143339290Y-100990693D01*
X143235391Y-101209577D01*
X143130997Y-101392318D01*
X143016369Y-101553416D01*
X142881770Y-101707372D01*
X142717461Y-101868688D01*
X142513704Y-102051865D01*
X142399167Y-102151694D01*
X142084557Y-102433243D01*
X141830572Y-102681641D01*
X141626432Y-102909230D01*
X141461355Y-103128353D01*
X141324560Y-103351351D01*
X141282909Y-103429600D01*
X141094862Y-103844496D01*
X140954387Y-104271958D01*
X140857100Y-104730507D01*
X140798616Y-105238665D01*
X140781312Y-105548334D01*
X140775117Y-105881188D01*
X140783599Y-106209785D01*
X140808450Y-106547682D01*
X140851361Y-106908435D01*
X140914023Y-107305600D01*
X140998127Y-107752735D01*
X141105363Y-108263395D01*
X141139056Y-108416417D01*
X141160204Y-108511667D01*
X138017667Y-108511667D01*
X138017667Y-108405834D01*
X138013632Y-108351713D01*
X137989559Y-108320136D01*
X137927490Y-108305036D01*
X137809470Y-108300344D01*
X137704513Y-108300000D01*
X137391358Y-108300000D01*
X137344496Y-108030896D01*
X137211091Y-107125923D01*
X137134755Y-106272460D01*
X137119838Y-105654939D01*
X137669260Y-105654939D01*
X137700288Y-106367290D01*
X137776924Y-107143607D01*
X137830945Y-107548584D01*
X137852883Y-107665547D01*
X137876361Y-107738060D01*
X137887152Y-107749667D01*
X137893540Y-107710544D01*
X137889820Y-107604549D01*
X137877000Y-107448744D01*
X137860262Y-107294584D01*
X137832258Y-106987502D01*
X137813664Y-106630200D01*
X137804408Y-106244089D01*
X137804422Y-105850583D01*
X137813634Y-105471095D01*
X137831973Y-105127037D01*
X137859370Y-104839824D01*
X137868555Y-104773169D01*
X138006927Y-104097633D01*
X138212858Y-103470331D01*
X138488385Y-102885867D01*
X138733998Y-102484110D01*
X138827586Y-102358431D01*
X138968687Y-102185798D01*
X139145570Y-101979743D01*
X139346504Y-101753796D01*
X139559758Y-101521491D01*
X139670218Y-101404153D01*
X140063787Y-100985051D01*
X140399533Y-100615206D01*
X140682213Y-100286843D01*
X140916579Y-99992184D01*
X141107386Y-99723455D01*
X141259388Y-99472879D01*
X141377338Y-99232680D01*
X141465992Y-98995083D01*
X141530102Y-98752311D01*
X141574423Y-98496589D01*
X141601655Y-98245008D01*
X141613937Y-98081379D01*
X141614693Y-97985559D01*
X141601268Y-97941154D01*
X141571007Y-97931771D01*
X141551371Y-97934572D01*
X141507447Y-97960513D01*
X141472435Y-98029335D01*
X141440291Y-98156653D01*
X141417832Y-98279597D01*
X141362018Y-98548800D01*
X141284774Y-98807843D01*
X141181153Y-99064188D01*
X141046209Y-99325298D01*
X140874995Y-99598635D01*
X140662564Y-99891660D01*
X140403969Y-100211835D01*
X140094263Y-100566622D01*
X139728499Y-100963484D01*
X139432284Y-101274661D01*
X139137544Y-101586713D01*
X138896197Y-101856353D01*
X138697989Y-102096998D01*
X138532666Y-102322070D01*
X138389973Y-102544987D01*
X138259655Y-102779171D01*
X138213125Y-102870156D01*
X138009730Y-103340901D01*
X137854073Y-103849536D01*
X137745726Y-104401278D01*
X137684263Y-105001340D01*
X137669260Y-105654939D01*
X137119838Y-105654939D01*
X137115433Y-105472606D01*
X137153068Y-104728460D01*
X137247605Y-104042121D01*
X137398989Y-103415690D01*
X137472441Y-103190858D01*
X137599069Y-102857316D01*
X137735909Y-102553520D01*
X137891533Y-102266792D01*
X138074512Y-101984451D01*
X138293415Y-101693820D01*
X138556814Y-101382219D01*
X138873279Y-101036970D01*
X139061582Y-100840013D01*
X139447241Y-100435311D01*
X139773812Y-100078624D01*
X140046205Y-99762537D01*
X140269330Y-99479633D01*
X140448098Y-99222497D01*
X140587420Y-98983713D01*
X140692205Y-98755866D01*
X140767365Y-98531539D01*
X140817810Y-98303317D01*
X140838911Y-98155901D01*
X140865657Y-97928334D01*
X138785495Y-97928334D01*
X138312633Y-97928262D01*
X137917466Y-97927859D01*
X137593023Y-97926840D01*
X137332333Y-97924922D01*
X137128424Y-97921821D01*
X136974324Y-97917253D01*
X136863063Y-97910935D01*
X136787669Y-97902582D01*
X136741170Y-97891912D01*
X136716596Y-97878639D01*
X136706974Y-97862481D01*
X136705334Y-97843667D01*
X136698263Y-97801482D01*
X136665698Y-97776200D01*
X136590607Y-97763562D01*
X136455959Y-97759312D01*
X136366667Y-97759000D01*
X136028000Y-97759000D01*
X136028000Y-95854000D01*
X136578334Y-95854000D01*
X136578334Y-96531334D01*
X136579385Y-96789065D01*
X136583255Y-96973584D01*
X136591014Y-97096323D01*
X136603735Y-97168717D01*
X136622491Y-97202203D01*
X136641834Y-97208667D01*
X136666686Y-97197149D01*
X136684251Y-97154749D01*
X136695705Y-97069699D01*
X136702226Y-96930231D01*
X136704989Y-96724576D01*
X136705334Y-96573667D01*
X136705334Y-95938667D01*
X140049667Y-95938667D01*
X140744108Y-95938132D01*
X141359464Y-95936535D01*
X141895036Y-95933884D01*
X142350127Y-95930188D01*
X142724043Y-95925455D01*
X143016084Y-95919695D01*
X143225556Y-95912915D01*
X143351760Y-95905126D01*
X143394000Y-95896336D01*
X143394000Y-95896334D01*
X143351783Y-95887617D01*
X143225582Y-95879884D01*
X143016076Y-95873144D01*
X142723942Y-95867403D01*
X142349859Y-95862672D01*
X141894504Y-95858958D01*
X141358555Y-95856270D01*
X140742691Y-95854615D01*
X140047588Y-95854004D01*
X139986167Y-95854000D01*
X136578334Y-95854000D01*
X136028000Y-95854000D01*
X136028000Y-95303667D01*
X143944334Y-95303667D01*
X143944334Y-95938667D01*
G36*
X150802334Y-95684667D02*
G01*
X151098667Y-95684667D01*
X151098667Y-108427000D01*
X149574667Y-108427000D01*
X149175624Y-108426880D01*
X148853105Y-108426216D01*
X148598968Y-108424557D01*
X148405069Y-108421451D01*
X148263267Y-108416445D01*
X148165418Y-108409087D01*
X148103381Y-108398924D01*
X148069012Y-108385504D01*
X148054169Y-108368374D01*
X148050709Y-108347083D01*
X148050667Y-108342334D01*
X148043596Y-108300149D01*
X148011031Y-108274867D01*
X147935940Y-108262229D01*
X147801292Y-108257978D01*
X147712000Y-108257667D01*
X147373334Y-108257667D01*
X147373334Y-102690834D01*
X147923667Y-102690834D01*
X147923758Y-103454471D01*
X147924067Y-104137789D01*
X147924649Y-104745137D01*
X147925560Y-105280861D01*
X147926854Y-105749311D01*
X147928586Y-106154833D01*
X147930812Y-106501776D01*
X147933586Y-106794487D01*
X147936964Y-107037314D01*
X147941000Y-107234606D01*
X147945750Y-107390709D01*
X147951269Y-107509972D01*
X147957611Y-107596742D01*
X147964832Y-107655368D01*
X147972986Y-107690197D01*
X147982130Y-107705578D01*
X147987167Y-107707334D01*
X147996833Y-107700162D01*
X148005483Y-107675748D01*
X148013171Y-107629744D01*
X148019952Y-107557803D01*
X148025882Y-107455576D01*
X148031015Y-107318716D01*
X148035407Y-107142875D01*
X148039112Y-106923705D01*
X148042186Y-106656857D01*
X148044683Y-106337985D01*
X148046659Y-105962741D01*
X148048169Y-105526776D01*
X148049267Y-105025743D01*
X148050009Y-104455293D01*
X148050450Y-103811080D01*
X148050645Y-103088755D01*
X148050667Y-102690834D01*
X148050576Y-101927196D01*
X148050267Y-101243878D01*
X148049685Y-100636530D01*
X148048774Y-100100806D01*
X148047480Y-99632356D01*
X148045748Y-99226834D01*
X148043522Y-98879891D01*
X148040747Y-98587180D01*
X148037370Y-98344353D01*
X148033333Y-98147061D01*
X148028583Y-97990958D01*
X148023065Y-97871695D01*
X148016723Y-97784925D01*
X148009502Y-97726299D01*
X148001347Y-97691470D01*
X147992204Y-97676089D01*
X147987167Y-97674334D01*
X147977501Y-97681505D01*
X147968851Y-97705919D01*
X147961163Y-97751923D01*
X147954382Y-97823864D01*
X147948452Y-97926091D01*
X147943319Y-98062951D01*
X147938927Y-98238792D01*
X147935222Y-98457962D01*
X147932148Y-98724810D01*
X147929651Y-99043682D01*
X147927675Y-99418926D01*
X147926165Y-99854891D01*
X147925067Y-100355924D01*
X147924325Y-100926374D01*
X147923884Y-101570587D01*
X147923689Y-102292912D01*
X147923667Y-102690834D01*
X147373334Y-102690834D01*
X147373334Y-97705112D01*
X146928834Y-97732056D01*
X146674371Y-97747481D01*
X146386256Y-97764945D01*
X146115344Y-97781367D01*
X146039834Y-97785944D01*
X145842204Y-97797300D01*
X145714036Y-97801058D01*
X145640291Y-97794922D01*
X145605930Y-97776593D01*
X145595914Y-97743775D01*
X145595334Y-97718038D01*
X145591541Y-97671409D01*
X145568727Y-97645266D01*
X145509737Y-97636323D01*
X145397417Y-97641294D01*
X145256667Y-97653167D01*
X144918000Y-97683146D01*
X144918000Y-96893003D01*
X145473514Y-96893003D01*
X145478302Y-97004598D01*
X145493816Y-97062244D01*
X145522238Y-97081182D01*
X145530185Y-97081667D01*
X145563746Y-97066680D01*
X145583753Y-97011384D01*
X145593250Y-96900277D01*
X145595334Y-96749890D01*
X145595334Y-96418112D01*
X147214584Y-96061973D01*
X147640562Y-95967539D01*
X147987362Y-95888939D01*
X148258787Y-95825198D01*
X148458640Y-95775342D01*
X148590723Y-95738396D01*
X148658841Y-95713384D01*
X148666795Y-95699331D01*
X148643334Y-95695703D01*
X148547714Y-95702521D01*
X148376852Y-95728003D01*
X148137777Y-95770810D01*
X147837516Y-95829603D01*
X147483097Y-95903045D01*
X147081550Y-95989796D01*
X146971167Y-96014172D01*
X145489500Y-96342773D01*
X145477269Y-96712220D01*
X145473514Y-96893003D01*
X144918000Y-96893003D01*
X144918000Y-95905512D01*
X145021972Y-95879417D01*
X145085395Y-95864737D01*
X145221932Y-95834000D01*
X145422007Y-95789333D01*
X145676043Y-95732864D01*
X145974464Y-95666721D01*
X146307694Y-95593033D01*
X146666156Y-95513925D01*
X146757339Y-95493827D01*
X148388733Y-95134334D01*
X150802334Y-95134334D01*
X150802334Y-95684667D01*
G37*
X150802334Y-95684667D02*
X151098667Y-95684667D01*
X151098667Y-108427000D01*
X149574667Y-108427000D01*
X149175624Y-108426880D01*
X148853105Y-108426216D01*
X148598968Y-108424557D01*
X148405069Y-108421451D01*
X148263267Y-108416445D01*
X148165418Y-108409087D01*
X148103381Y-108398924D01*
X148069012Y-108385504D01*
X148054169Y-108368374D01*
X148050709Y-108347083D01*
X148050667Y-108342334D01*
X148043596Y-108300149D01*
X148011031Y-108274867D01*
X147935940Y-108262229D01*
X147801292Y-108257978D01*
X147712000Y-108257667D01*
X147373334Y-108257667D01*
X147373334Y-102690834D01*
X147923667Y-102690834D01*
X147923758Y-103454471D01*
X147924067Y-104137789D01*
X147924649Y-104745137D01*
X147925560Y-105280861D01*
X147926854Y-105749311D01*
X147928586Y-106154833D01*
X147930812Y-106501776D01*
X147933586Y-106794487D01*
X147936964Y-107037314D01*
X147941000Y-107234606D01*
X147945750Y-107390709D01*
X147951269Y-107509972D01*
X147957611Y-107596742D01*
X147964832Y-107655368D01*
X147972986Y-107690197D01*
X147982130Y-107705578D01*
X147987167Y-107707334D01*
X147996833Y-107700162D01*
X148005483Y-107675748D01*
X148013171Y-107629744D01*
X148019952Y-107557803D01*
X148025882Y-107455576D01*
X148031015Y-107318716D01*
X148035407Y-107142875D01*
X148039112Y-106923705D01*
X148042186Y-106656857D01*
X148044683Y-106337985D01*
X148046659Y-105962741D01*
X148048169Y-105526776D01*
X148049267Y-105025743D01*
X148050009Y-104455293D01*
X148050450Y-103811080D01*
X148050645Y-103088755D01*
X148050667Y-102690834D01*
X148050576Y-101927196D01*
X148050267Y-101243878D01*
X148049685Y-100636530D01*
X148048774Y-100100806D01*
X148047480Y-99632356D01*
X148045748Y-99226834D01*
X148043522Y-98879891D01*
X148040747Y-98587180D01*
X148037370Y-98344353D01*
X148033333Y-98147061D01*
X148028583Y-97990958D01*
X148023065Y-97871695D01*
X148016723Y-97784925D01*
X148009502Y-97726299D01*
X148001347Y-97691470D01*
X147992204Y-97676089D01*
X147987167Y-97674334D01*
X147977501Y-97681505D01*
X147968851Y-97705919D01*
X147961163Y-97751923D01*
X147954382Y-97823864D01*
X147948452Y-97926091D01*
X147943319Y-98062951D01*
X147938927Y-98238792D01*
X147935222Y-98457962D01*
X147932148Y-98724810D01*
X147929651Y-99043682D01*
X147927675Y-99418926D01*
X147926165Y-99854891D01*
X147925067Y-100355924D01*
X147924325Y-100926374D01*
X147923884Y-101570587D01*
X147923689Y-102292912D01*
X147923667Y-102690834D01*
X147373334Y-102690834D01*
X147373334Y-97705112D01*
X146928834Y-97732056D01*
X146674371Y-97747481D01*
X146386256Y-97764945D01*
X146115344Y-97781367D01*
X146039834Y-97785944D01*
X145842204Y-97797300D01*
X145714036Y-97801058D01*
X145640291Y-97794922D01*
X145605930Y-97776593D01*
X145595914Y-97743775D01*
X145595334Y-97718038D01*
X145591541Y-97671409D01*
X145568727Y-97645266D01*
X145509737Y-97636323D01*
X145397417Y-97641294D01*
X145256667Y-97653167D01*
X144918000Y-97683146D01*
X144918000Y-96893003D01*
X145473514Y-96893003D01*
X145478302Y-97004598D01*
X145493816Y-97062244D01*
X145522238Y-97081182D01*
X145530185Y-97081667D01*
X145563746Y-97066680D01*
X145583753Y-97011384D01*
X145593250Y-96900277D01*
X145595334Y-96749890D01*
X145595334Y-96418112D01*
X147214584Y-96061973D01*
X147640562Y-95967539D01*
X147987362Y-95888939D01*
X148258787Y-95825198D01*
X148458640Y-95775342D01*
X148590723Y-95738396D01*
X148658841Y-95713384D01*
X148666795Y-95699331D01*
X148643334Y-95695703D01*
X148547714Y-95702521D01*
X148376852Y-95728003D01*
X148137777Y-95770810D01*
X147837516Y-95829603D01*
X147483097Y-95903045D01*
X147081550Y-95989796D01*
X146971167Y-96014172D01*
X145489500Y-96342773D01*
X145477269Y-96712220D01*
X145473514Y-96893003D01*
X144918000Y-96893003D01*
X144918000Y-95905512D01*
X145021972Y-95879417D01*
X145085395Y-95864737D01*
X145221932Y-95834000D01*
X145422007Y-95789333D01*
X145676043Y-95732864D01*
X145974464Y-95666721D01*
X146307694Y-95593033D01*
X146666156Y-95513925D01*
X146757339Y-95493827D01*
X148388733Y-95134334D01*
X150802334Y-95134334D01*
X150802334Y-95684667D01*
G36*
X139621599Y-85524329D02*
G01*
X140197988Y-85588738D01*
X140703493Y-85695861D01*
X141141608Y-85847954D01*
X141515826Y-86047276D01*
X141829639Y-86296083D01*
X142086540Y-86596634D01*
X142290022Y-86951185D01*
X142438514Y-87345000D01*
X142483561Y-87505944D01*
X142521228Y-87669369D01*
X142552139Y-87844390D01*
X142576917Y-88040123D01*
X142596186Y-88265683D01*
X142610571Y-88530187D01*
X142620696Y-88842749D01*
X142627185Y-89212485D01*
X142630661Y-89648511D01*
X142631749Y-90159941D01*
X142631751Y-90167687D01*
X142632882Y-90580819D01*
X142636013Y-90972586D01*
X142640929Y-91332794D01*
X142647414Y-91651247D01*
X142655253Y-91917750D01*
X142664228Y-92122111D01*
X142674125Y-92254132D01*
X142676290Y-92271641D01*
X142704079Y-92436061D01*
X142747953Y-92654925D01*
X142802116Y-92900883D01*
X142860774Y-93146589D01*
X142866790Y-93170597D01*
X142938215Y-93469109D01*
X142983774Y-93702383D01*
X143004388Y-93885502D01*
X143000979Y-94033543D01*
X142974468Y-94161589D01*
X142933791Y-94267440D01*
X142782555Y-94508207D01*
X142579488Y-94695971D01*
X142339441Y-94823850D01*
X142077262Y-94884965D01*
X141807803Y-94872436D01*
X141692662Y-94842451D01*
X141565985Y-94772743D01*
X141411561Y-94645342D01*
X141244131Y-94475788D01*
X141078435Y-94279621D01*
X140929216Y-94072382D01*
X140866673Y-93971663D01*
X140786383Y-93839725D01*
X140721009Y-93742111D01*
X140682837Y-93696964D01*
X140679905Y-93695811D01*
X140634629Y-93719643D01*
X140547919Y-93781326D01*
X140489405Y-93826877D01*
X140175008Y-94060834D01*
X139837410Y-94280610D01*
X139497697Y-94474091D01*
X139176954Y-94629164D01*
X138927834Y-94724014D01*
X138507223Y-94825984D01*
X138045726Y-94882629D01*
X137575865Y-94890810D01*
X137351897Y-94876124D01*
X136890507Y-94794980D01*
X136469624Y-94642167D01*
X136136622Y-94453431D01*
X135781548Y-94167038D01*
X135491227Y-93828613D01*
X135268210Y-93443563D01*
X135115050Y-93017297D01*
X135034298Y-92555221D01*
X135026312Y-92100042D01*
X135040099Y-91993762D01*
X137217350Y-91993762D01*
X137227013Y-92277585D01*
X137311869Y-92564663D01*
X137447821Y-92808387D01*
X137639357Y-93012849D01*
X137885025Y-93159812D01*
X138174286Y-93246421D01*
X138496600Y-93269820D01*
X138841428Y-93227154D01*
X138922285Y-93207833D01*
X139325794Y-93063584D01*
X139678112Y-92853335D01*
X139890050Y-92672246D01*
X140059650Y-92484687D01*
X140195221Y-92280722D01*
X140300850Y-92047989D01*
X140380622Y-91774126D01*
X140438623Y-91446769D01*
X140478940Y-91053555D01*
X140492546Y-90849338D01*
X140521295Y-90353176D01*
X140274898Y-90438980D01*
X140162412Y-90474272D01*
X139983208Y-90525805D01*
X139752725Y-90589356D01*
X139486401Y-90660701D01*
X139199676Y-90735618D01*
X139054834Y-90772752D01*
X138715407Y-90859442D01*
X138447038Y-90929229D01*
X138238698Y-90985974D01*
X138079363Y-91033534D01*
X137958008Y-91075769D01*
X137863606Y-91116539D01*
X137785132Y-91159701D01*
X137711560Y-91209116D01*
X137631864Y-91268643D01*
X137626615Y-91272644D01*
X137418441Y-91480211D01*
X137281590Y-91724277D01*
X137217350Y-91993762D01*
X135040099Y-91993762D01*
X135087956Y-91624858D01*
X135220334Y-91195996D01*
X135424235Y-90812068D01*
X135700448Y-90471686D01*
X136049763Y-90173464D01*
X136168027Y-90092599D01*
X136299509Y-90014129D01*
X136446832Y-89941768D01*
X136620391Y-89872179D01*
X136830584Y-89802025D01*
X137087809Y-89727968D01*
X137402461Y-89646673D01*
X137784940Y-89554802D01*
X137996500Y-89505778D01*
X138331091Y-89426827D01*
X138698294Y-89336637D01*
X139069124Y-89242559D01*
X139414595Y-89151944D01*
X139700417Y-89073643D01*
X140473000Y-88855406D01*
X140472374Y-88661120D01*
X140453968Y-88443846D01*
X140406106Y-88195762D01*
X140337998Y-87955971D01*
X140262743Y-87771096D01*
X140115951Y-87568367D01*
X139911559Y-87403314D01*
X139674856Y-87296356D01*
X139674751Y-87296326D01*
X139495707Y-87262432D01*
X139260804Y-87243280D01*
X138996094Y-87238426D01*
X138727626Y-87247425D01*
X138481452Y-87269832D01*
X138283624Y-87305203D01*
X138229334Y-87320998D01*
X138025968Y-87401472D01*
X137847009Y-87501727D01*
X137681623Y-87632365D01*
X137518974Y-87803991D01*
X137348227Y-88027208D01*
X137158547Y-88312619D01*
X137068550Y-88456970D01*
X136937665Y-88661468D01*
X136828628Y-88802505D01*
X136724123Y-88891682D01*
X136606834Y-88940603D01*
X136459446Y-88960870D01*
X136311477Y-88964250D01*
X136019758Y-88930616D01*
X135780704Y-88831415D01*
X135596698Y-88669205D01*
X135470125Y-88446541D01*
X135403371Y-88165978D01*
X135393000Y-87980024D01*
X135434269Y-87587812D01*
X135555373Y-87212703D01*
X135752257Y-86860354D01*
X136020866Y-86536426D01*
X136357146Y-86246575D01*
X136757042Y-85996462D01*
X136847648Y-85950047D01*
X137351861Y-85744557D01*
X137906933Y-85601906D01*
X138514810Y-85521795D01*
X139177440Y-85503926D01*
X139621599Y-85524329D01*
G37*
X139621599Y-85524329D02*
X140197988Y-85588738D01*
X140703493Y-85695861D01*
X141141608Y-85847954D01*
X141515826Y-86047276D01*
X141829639Y-86296083D01*
X142086540Y-86596634D01*
X142290022Y-86951185D01*
X142438514Y-87345000D01*
X142483561Y-87505944D01*
X142521228Y-87669369D01*
X142552139Y-87844390D01*
X142576917Y-88040123D01*
X142596186Y-88265683D01*
X142610571Y-88530187D01*
X142620696Y-88842749D01*
X142627185Y-89212485D01*
X142630661Y-89648511D01*
X142631749Y-90159941D01*
X142631751Y-90167687D01*
X142632882Y-90580819D01*
X142636013Y-90972586D01*
X142640929Y-91332794D01*
X142647414Y-91651247D01*
X142655253Y-91917750D01*
X142664228Y-92122111D01*
X142674125Y-92254132D01*
X142676290Y-92271641D01*
X142704079Y-92436061D01*
X142747953Y-92654925D01*
X142802116Y-92900883D01*
X142860774Y-93146589D01*
X142866790Y-93170597D01*
X142938215Y-93469109D01*
X142983774Y-93702383D01*
X143004388Y-93885502D01*
X143000979Y-94033543D01*
X142974468Y-94161589D01*
X142933791Y-94267440D01*
X142782555Y-94508207D01*
X142579488Y-94695971D01*
X142339441Y-94823850D01*
X142077262Y-94884965D01*
X141807803Y-94872436D01*
X141692662Y-94842451D01*
X141565985Y-94772743D01*
X141411561Y-94645342D01*
X141244131Y-94475788D01*
X141078435Y-94279621D01*
X140929216Y-94072382D01*
X140866673Y-93971663D01*
X140786383Y-93839725D01*
X140721009Y-93742111D01*
X140682837Y-93696964D01*
X140679905Y-93695811D01*
X140634629Y-93719643D01*
X140547919Y-93781326D01*
X140489405Y-93826877D01*
X140175008Y-94060834D01*
X139837410Y-94280610D01*
X139497697Y-94474091D01*
X139176954Y-94629164D01*
X138927834Y-94724014D01*
X138507223Y-94825984D01*
X138045726Y-94882629D01*
X137575865Y-94890810D01*
X137351897Y-94876124D01*
X136890507Y-94794980D01*
X136469624Y-94642167D01*
X136136622Y-94453431D01*
X135781548Y-94167038D01*
X135491227Y-93828613D01*
X135268210Y-93443563D01*
X135115050Y-93017297D01*
X135034298Y-92555221D01*
X135026312Y-92100042D01*
X135040099Y-91993762D01*
X137217350Y-91993762D01*
X137227013Y-92277585D01*
X137311869Y-92564663D01*
X137447821Y-92808387D01*
X137639357Y-93012849D01*
X137885025Y-93159812D01*
X138174286Y-93246421D01*
X138496600Y-93269820D01*
X138841428Y-93227154D01*
X138922285Y-93207833D01*
X139325794Y-93063584D01*
X139678112Y-92853335D01*
X139890050Y-92672246D01*
X140059650Y-92484687D01*
X140195221Y-92280722D01*
X140300850Y-92047989D01*
X140380622Y-91774126D01*
X140438623Y-91446769D01*
X140478940Y-91053555D01*
X140492546Y-90849338D01*
X140521295Y-90353176D01*
X140274898Y-90438980D01*
X140162412Y-90474272D01*
X139983208Y-90525805D01*
X139752725Y-90589356D01*
X139486401Y-90660701D01*
X139199676Y-90735618D01*
X139054834Y-90772752D01*
X138715407Y-90859442D01*
X138447038Y-90929229D01*
X138238698Y-90985974D01*
X138079363Y-91033534D01*
X137958008Y-91075769D01*
X137863606Y-91116539D01*
X137785132Y-91159701D01*
X137711560Y-91209116D01*
X137631864Y-91268643D01*
X137626615Y-91272644D01*
X137418441Y-91480211D01*
X137281590Y-91724277D01*
X137217350Y-91993762D01*
X135040099Y-91993762D01*
X135087956Y-91624858D01*
X135220334Y-91195996D01*
X135424235Y-90812068D01*
X135700448Y-90471686D01*
X136049763Y-90173464D01*
X136168027Y-90092599D01*
X136299509Y-90014129D01*
X136446832Y-89941768D01*
X136620391Y-89872179D01*
X136830584Y-89802025D01*
X137087809Y-89727968D01*
X137402461Y-89646673D01*
X137784940Y-89554802D01*
X137996500Y-89505778D01*
X138331091Y-89426827D01*
X138698294Y-89336637D01*
X139069124Y-89242559D01*
X139414595Y-89151944D01*
X139700417Y-89073643D01*
X140473000Y-88855406D01*
X140472374Y-88661120D01*
X140453968Y-88443846D01*
X140406106Y-88195762D01*
X140337998Y-87955971D01*
X140262743Y-87771096D01*
X140115951Y-87568367D01*
X139911559Y-87403314D01*
X139674856Y-87296356D01*
X139674751Y-87296326D01*
X139495707Y-87262432D01*
X139260804Y-87243280D01*
X138996094Y-87238426D01*
X138727626Y-87247425D01*
X138481452Y-87269832D01*
X138283624Y-87305203D01*
X138229334Y-87320998D01*
X138025968Y-87401472D01*
X137847009Y-87501727D01*
X137681623Y-87632365D01*
X137518974Y-87803991D01*
X137348227Y-88027208D01*
X137158547Y-88312619D01*
X137068550Y-88456970D01*
X136937665Y-88661468D01*
X136828628Y-88802505D01*
X136724123Y-88891682D01*
X136606834Y-88940603D01*
X136459446Y-88960870D01*
X136311477Y-88964250D01*
X136019758Y-88930616D01*
X135780704Y-88831415D01*
X135596698Y-88669205D01*
X135470125Y-88446541D01*
X135403371Y-88165978D01*
X135393000Y-87980024D01*
X135434269Y-87587812D01*
X135555373Y-87212703D01*
X135752257Y-86860354D01*
X136020866Y-86536426D01*
X136357146Y-86246575D01*
X136757042Y-85996462D01*
X136847648Y-85950047D01*
X137351861Y-85744557D01*
X137906933Y-85601906D01*
X138514810Y-85521795D01*
X139177440Y-85503926D01*
X139621599Y-85524329D01*
G36*
X146109374Y-82510878D02*
G01*
X146373031Y-82615377D01*
X146600085Y-82791685D01*
X146781778Y-83035834D01*
X146831314Y-83132834D01*
X146928834Y-83344500D01*
X146950000Y-86175868D01*
X146971167Y-89007235D01*
X148235095Y-87636368D01*
X148509445Y-87340130D01*
X148775352Y-87055511D01*
X149025393Y-86790279D01*
X149252145Y-86552203D01*
X149448186Y-86349050D01*
X149606093Y-86188588D01*
X149718444Y-86078585D01*
X149758323Y-86042240D01*
X149968818Y-85882183D01*
X150165383Y-85786195D01*
X150375980Y-85744769D01*
X150623708Y-85748008D01*
X150904118Y-85807507D01*
X151136071Y-85933440D01*
X151312827Y-86119009D01*
X151427644Y-86357417D01*
X151471952Y-86603271D01*
X151472130Y-86767538D01*
X151447495Y-86925531D01*
X151392761Y-87084992D01*
X151302642Y-87253664D01*
X151171852Y-87439288D01*
X150995107Y-87649607D01*
X150767120Y-87892361D01*
X150482607Y-88175294D01*
X150239528Y-88408477D01*
X150041820Y-88597336D01*
X149867065Y-88766560D01*
X149723896Y-88907598D01*
X149620951Y-89011898D01*
X149566863Y-89070906D01*
X149560802Y-89080667D01*
X149583725Y-89119797D01*
X149646828Y-89224127D01*
X149745893Y-89386764D01*
X149876702Y-89600814D01*
X150035037Y-89859386D01*
X150216680Y-90155587D01*
X150417414Y-90482524D01*
X150633020Y-90833304D01*
X150688912Y-90924179D01*
X150975143Y-91389583D01*
X151220254Y-91788877D01*
X151427431Y-92128098D01*
X151599863Y-92413284D01*
X151740735Y-92650472D01*
X151853234Y-92845700D01*
X151940548Y-93005005D01*
X152005864Y-93134425D01*
X152052368Y-93239998D01*
X152083247Y-93327760D01*
X152101689Y-93403750D01*
X152110880Y-93474006D01*
X152114007Y-93544563D01*
X152114258Y-93621461D01*
X152114253Y-93624433D01*
X152078221Y-93938837D01*
X151976531Y-94211489D01*
X151817439Y-94435288D01*
X151609194Y-94603130D01*
X151360051Y-94707915D01*
X151078262Y-94742541D01*
X150844667Y-94717014D01*
X150692703Y-94675617D01*
X150559675Y-94622491D01*
X150506000Y-94591374D01*
X150433841Y-94526722D01*
X150344651Y-94424518D01*
X150235472Y-94280224D01*
X150103342Y-94089298D01*
X149945302Y-93847199D01*
X149758393Y-93549388D01*
X149539654Y-93191323D01*
X149286125Y-92768465D01*
X148994846Y-92276272D01*
X148976485Y-92245084D01*
X148779469Y-91911278D01*
X148595336Y-91601109D01*
X148428556Y-91321973D01*
X148283598Y-91081268D01*
X148164931Y-90886389D01*
X148077025Y-90744735D01*
X148024348Y-90663702D01*
X148010910Y-90647000D01*
X147974340Y-90675548D01*
X147888545Y-90754694D01*
X147763686Y-90874697D01*
X147609929Y-91025814D01*
X147469937Y-91165584D01*
X146953979Y-91684167D01*
X146941406Y-92784834D01*
X146937294Y-93119746D01*
X146932876Y-93381328D01*
X146927166Y-93580913D01*
X146919176Y-93729832D01*
X146907921Y-93839420D01*
X146892414Y-93921008D01*
X146871668Y-93985931D01*
X146844698Y-94045522D01*
X146829020Y-94076000D01*
X146646145Y-94347078D01*
X146421274Y-94551109D01*
X146163334Y-94684117D01*
X145881251Y-94742128D01*
X145583949Y-94721165D01*
X145455942Y-94687614D01*
X145227983Y-94572118D01*
X145028488Y-94386615D01*
X144870486Y-94144344D01*
X144827610Y-94049110D01*
X144727500Y-93800834D01*
X144715276Y-88911334D01*
X144713625Y-88093422D01*
X144712903Y-87336721D01*
X144713095Y-86643585D01*
X144714187Y-86016366D01*
X144716167Y-85457418D01*
X144719020Y-84969093D01*
X144722734Y-84553745D01*
X144727293Y-84213726D01*
X144732685Y-83951391D01*
X144738896Y-83769092D01*
X144745662Y-83671189D01*
X144819123Y-83300834D01*
X144941028Y-82999460D01*
X145111224Y-82767299D01*
X145329558Y-82604579D01*
X145507294Y-82533173D01*
X145817875Y-82482154D01*
X146109374Y-82510878D01*
G37*
X146109374Y-82510878D02*
X146373031Y-82615377D01*
X146600085Y-82791685D01*
X146781778Y-83035834D01*
X146831314Y-83132834D01*
X146928834Y-83344500D01*
X146950000Y-86175868D01*
X146971167Y-89007235D01*
X148235095Y-87636368D01*
X148509445Y-87340130D01*
X148775352Y-87055511D01*
X149025393Y-86790279D01*
X149252145Y-86552203D01*
X149448186Y-86349050D01*
X149606093Y-86188588D01*
X149718444Y-86078585D01*
X149758323Y-86042240D01*
X149968818Y-85882183D01*
X150165383Y-85786195D01*
X150375980Y-85744769D01*
X150623708Y-85748008D01*
X150904118Y-85807507D01*
X151136071Y-85933440D01*
X151312827Y-86119009D01*
X151427644Y-86357417D01*
X151471952Y-86603271D01*
X151472130Y-86767538D01*
X151447495Y-86925531D01*
X151392761Y-87084992D01*
X151302642Y-87253664D01*
X151171852Y-87439288D01*
X150995107Y-87649607D01*
X150767120Y-87892361D01*
X150482607Y-88175294D01*
X150239528Y-88408477D01*
X150041820Y-88597336D01*
X149867065Y-88766560D01*
X149723896Y-88907598D01*
X149620951Y-89011898D01*
X149566863Y-89070906D01*
X149560802Y-89080667D01*
X149583725Y-89119797D01*
X149646828Y-89224127D01*
X149745893Y-89386764D01*
X149876702Y-89600814D01*
X150035037Y-89859386D01*
X150216680Y-90155587D01*
X150417414Y-90482524D01*
X150633020Y-90833304D01*
X150688912Y-90924179D01*
X150975143Y-91389583D01*
X151220254Y-91788877D01*
X151427431Y-92128098D01*
X151599863Y-92413284D01*
X151740735Y-92650472D01*
X151853234Y-92845700D01*
X151940548Y-93005005D01*
X152005864Y-93134425D01*
X152052368Y-93239998D01*
X152083247Y-93327760D01*
X152101689Y-93403750D01*
X152110880Y-93474006D01*
X152114007Y-93544563D01*
X152114258Y-93621461D01*
X152114253Y-93624433D01*
X152078221Y-93938837D01*
X151976531Y-94211489D01*
X151817439Y-94435288D01*
X151609194Y-94603130D01*
X151360051Y-94707915D01*
X151078262Y-94742541D01*
X150844667Y-94717014D01*
X150692703Y-94675617D01*
X150559675Y-94622491D01*
X150506000Y-94591374D01*
X150433841Y-94526722D01*
X150344651Y-94424518D01*
X150235472Y-94280224D01*
X150103342Y-94089298D01*
X149945302Y-93847199D01*
X149758393Y-93549388D01*
X149539654Y-93191323D01*
X149286125Y-92768465D01*
X148994846Y-92276272D01*
X148976485Y-92245084D01*
X148779469Y-91911278D01*
X148595336Y-91601109D01*
X148428556Y-91321973D01*
X148283598Y-91081268D01*
X148164931Y-90886389D01*
X148077025Y-90744735D01*
X148024348Y-90663702D01*
X148010910Y-90647000D01*
X147974340Y-90675548D01*
X147888545Y-90754694D01*
X147763686Y-90874697D01*
X147609929Y-91025814D01*
X147469937Y-91165584D01*
X146953979Y-91684167D01*
X146941406Y-92784834D01*
X146937294Y-93119746D01*
X146932876Y-93381328D01*
X146927166Y-93580913D01*
X146919176Y-93729832D01*
X146907921Y-93839420D01*
X146892414Y-93921008D01*
X146871668Y-93985931D01*
X146844698Y-94045522D01*
X146829020Y-94076000D01*
X146646145Y-94347078D01*
X146421274Y-94551109D01*
X146163334Y-94684117D01*
X145881251Y-94742128D01*
X145583949Y-94721165D01*
X145455942Y-94687614D01*
X145227983Y-94572118D01*
X145028488Y-94386615D01*
X144870486Y-94144344D01*
X144827610Y-94049110D01*
X144727500Y-93800834D01*
X144715276Y-88911334D01*
X144713625Y-88093422D01*
X144712903Y-87336721D01*
X144713095Y-86643585D01*
X144714187Y-86016366D01*
X144716167Y-85457418D01*
X144719020Y-84969093D01*
X144722734Y-84553745D01*
X144727293Y-84213726D01*
X144732685Y-83951391D01*
X144738896Y-83769092D01*
X144745662Y-83671189D01*
X144819123Y-83300834D01*
X144941028Y-82999460D01*
X145111224Y-82767299D01*
X145329558Y-82604579D01*
X145507294Y-82533173D01*
X145817875Y-82482154D01*
X146109374Y-82510878D01*
M02*
